<svg width="42" height="32" viewBox="0 0 42 32" fill="none" xmlns="http://www.w3.org/2000/svg">
<path d="M37.4457 2.80285C39.8141 5.35288 41.0857 8.21293 41.0857 12.8491C41.0857 21.0074 35.436 28.3195 27.2201 31.9348L25.1668 28.7227C32.8353 24.5178 34.3346 19.0611 34.9324 15.6206C33.6976 16.2686 32.0811 16.4947 30.4968 16.3455C26.3487 15.9563 23.0789 12.5042 23.0789 8.21293C23.0789 6.04923 23.9268 3.97415 25.4361 2.44418C26.9454 0.914214 28.9924 0.0546875 31.1269 0.0546875C33.5942 0.0546875 35.9534 1.19684 37.4457 2.80285ZM14.4514 2.80285C16.8198 5.35288 18.0914 8.21293 18.0914 12.8491C18.0914 21.0074 12.4417 28.3195 4.22588 31.9348L2.17249 28.7227C9.84108 24.5178 11.3403 19.0611 11.9382 15.6206C10.7034 16.2686 9.08687 16.4947 7.50256 16.3455C3.3544 15.9563 0.0869141 12.5042 0.0869141 8.21293C0.0869141 6.04923 0.934825 3.97415 2.44412 2.44418C3.95341 0.914214 6.00045 0.0546875 8.13491 0.0546875C10.6022 0.0546875 12.9614 1.19684 14.4537 2.80285H14.4514Z" fill="#5798FF"/>
</svg>
