<svg width="157" height="36" viewBox="0 0 157 36" fill="none" xmlns="http://www.w3.org/2000/svg">
<path fill-rule="evenodd" clip-rule="evenodd" d="M17.8273 0.825195C27.3144 0.825195 35.0051 8.51612 35.0051 18.0032C35.0051 27.4901 27.3144 35.181 17.8273 35.181C8.34018 35.181 0.649414 27.4901 0.649414 18.0032C0.649414 8.51612 8.34018 0.825195 17.8273 0.825195ZM17.8273 3.29276C25.9516 3.29276 32.5376 9.87883 32.5376 18.0032C32.5376 26.1274 25.9516 32.7134 17.8273 32.7134C9.7029 32.7134 3.1169 26.1274 3.1169 18.0032C3.1169 9.87883 9.7029 3.29276 17.8273 3.29276Z" fill="#5798FF"/>
<path fill-rule="evenodd" clip-rule="evenodd" d="M10.3345 10.5106C13.4347 7.41041 17.978 6.63307 21.8021 8.17816L19.1484 10.8319L18.025 11.9552L18.0247 11.9554L22.7513 16.682L20.7522 18.6811L16.0259 13.9548L16.0157 13.9651L16.0154 13.9648L11.4056 18.5746L11.3955 18.5646L10.2719 19.6883L13.7973 23.2138L14.921 22.0901L14.9115 22.0806L16.1456 20.8466L17.3799 22.0809L12.3717 27.0891C11.6457 26.6524 10.9605 26.1217 10.3345 25.4956C6.19646 21.3576 6.19646 14.6486 10.3345 10.5106ZM19.6153 22.0769L19.6192 22.073L16.1487 18.6025L16.1421 18.6092L16.1389 18.606L13.7879 20.957L12.5292 19.6983L16.0256 16.2018L19.6286 19.8047L20.7517 20.9279L20.7522 20.9283L24.9987 16.6818L23.8751 15.5581L23.8749 15.5584L20.272 11.9554L23.2997 8.92777C24.0192 9.36232 24.6985 9.88952 25.3195 10.5106C29.4576 14.6486 29.4576 21.3576 25.3195 25.4957C22.2248 28.5905 17.6919 29.3704 13.8721 27.8359L19.6232 22.0848L19.6153 22.0769Z" fill="#5798FF"/>
<path d="M8.65854 26.8257C8.55997 26.9034 8.46012 26.9587 8.35915 26.9907C8.25817 27.0234 8.15878 27.0329 8.0602 27.0188C7.96163 27.0048 7.86538 26.9676 7.77205 26.9068C7.6779 26.846 7.58877 26.7618 7.50362 26.6539C7.42386 26.5527 7.36494 26.4516 7.32671 26.3515C7.28848 26.2506 7.27311 26.1524 7.28068 26.0561C7.28825 25.9599 7.31891 25.8668 7.37281 25.7767C7.42663 25.6868 7.50452 25.6012 7.60744 25.5201L8.58785 24.7474C8.59595 24.741 8.60562 24.7376 8.61641 24.7373C8.62653 24.737 8.63905 24.7415 8.65337 24.7509C8.66769 24.7603 8.6841 24.775 8.70307 24.7938C8.72166 24.8121 8.74407 24.8379 8.76956 24.8702C8.79399 24.9013 8.81349 24.9286 8.82705 24.9511C8.84085 24.9739 8.85104 24.9928 8.85644 25.0085C8.86191 25.0242 8.86341 25.0376 8.86138 25.048C8.85891 25.0589 8.85329 25.0675 8.84527 25.0739L7.89296 25.8245C7.82872 25.8752 7.77977 25.9268 7.74499 25.9797C7.71058 26.0323 7.6893 26.0857 7.68217 26.1396C7.6746 26.193 7.67903 26.2467 7.69627 26.3C7.71343 26.3533 7.74199 26.4052 7.78187 26.4559C7.82243 26.5073 7.86703 26.5473 7.91463 26.5753C7.96253 26.6036 8.0126 26.62 8.06522 26.6248C8.11792 26.6287 8.17279 26.6213 8.22909 26.6018C8.28576 26.5818 8.34243 26.5496 8.39895 26.5051L9.36999 25.7397C9.37809 25.7333 9.38776 25.7298 9.39856 25.7296C9.4086 25.7292 9.42119 25.7338 9.43514 25.7428C9.44915 25.7517 9.46557 25.7664 9.48491 25.7857C9.50418 25.8049 9.52621 25.8303 9.55103 25.8617C9.57584 25.8932 9.59495 25.9201 9.60852 25.9425C9.62201 25.965 9.63213 25.9839 9.63753 25.9996C9.64308 26.0153 9.6445 26.0285 9.64188 26.0382C9.63903 26.0487 9.63341 26.0573 9.62539 26.0637L8.65854 26.8257ZM10.5964 29.2846C10.5813 29.3037 10.5644 29.3181 10.5461 29.3283C10.5275 29.3378 10.5088 29.3431 10.4893 29.3442C10.4706 29.3454 10.4517 29.3422 10.4326 29.3348C10.4133 29.327 10.3963 29.3172 10.3805 29.3047L10.2407 29.1944C10.2114 29.1714 10.1886 29.1486 10.1717 29.1263C10.1555 29.104 10.1444 29.0779 10.1386 29.0485C10.1324 29.0188 10.1318 28.9845 10.136 28.9452C10.1398 28.9061 10.1479 28.8573 10.1599 28.7993L10.3542 27.7302C10.3663 27.6667 10.3811 27.5998 10.3978 27.5288C10.4144 27.4578 10.4331 27.3904 10.4524 27.3265L10.4499 27.3245C10.4061 27.3871 10.3617 27.4487 10.3165 27.5095C10.2716 27.57 10.2238 27.6323 10.1743 27.6951L9.50897 28.5391C9.5026 28.5472 9.49443 28.5531 9.48446 28.5563C9.47472 28.5589 9.46227 28.5581 9.44758 28.554C9.43274 28.55 9.41475 28.5414 9.39361 28.5288C9.37254 28.5163 9.34691 28.4981 9.31707 28.4747C9.28776 28.4516 9.26452 28.4311 9.24743 28.4135C9.23027 28.3959 9.21805 28.3807 9.21123 28.3677C9.20343 28.3547 9.20051 28.3427 9.20171 28.3334C9.20283 28.3232 9.20673 28.3139 9.2131 28.3059L10.3552 26.857C10.3861 26.8179 10.4207 26.7976 10.459 26.7961C10.497 26.7943 10.5328 26.8066 10.5664 26.8332L10.7419 26.9715C10.7734 26.9964 10.7982 27.02 10.8155 27.0427C10.8328 27.0652 10.8449 27.0892 10.8522 27.115C10.8595 27.1407 10.8619 27.1709 10.8593 27.2048C10.8571 27.2382 10.8507 27.2778 10.841 27.3225L10.6894 28.1592C10.6796 28.2093 10.6695 28.2587 10.6602 28.3072C10.651 28.3558 10.6413 28.4039 10.6302 28.4511C10.6197 28.4985 10.609 28.5453 10.5987 28.5909C10.5883 28.6372 10.5775 28.6824 10.5662 28.7274L10.5674 28.7283C10.6108 28.6681 10.6566 28.6056 10.705 28.5417C10.7536 28.4774 10.8008 28.4166 10.8461 28.3592L11.4426 27.6025C11.449 27.5944 11.4575 27.5888 11.468 27.586C11.4777 27.5833 11.4909 27.5841 11.5064 27.588C11.5223 27.5922 11.5403 27.6009 11.5611 27.6139C11.5819 27.6269 11.6072 27.6454 11.637 27.6689C11.6655 27.6914 11.6886 27.711 11.7061 27.7281C11.7235 27.7454 11.7354 27.7602 11.7419 27.7737C11.7481 27.7868 11.7511 27.7988 11.7499 27.8082C11.7487 27.8184 11.7452 27.8272 11.7385 27.8358L10.5964 29.2846ZM12.2893 30.3027C12.2846 30.3119 12.2774 30.3192 12.2672 30.3237C12.2573 30.3278 12.244 30.329 12.2275 30.3267C12.2113 30.324 12.19 30.3182 12.1653 30.3094C12.1402 30.3003 12.109 30.2865 12.0723 30.268C12.0364 30.25 12.0072 30.2334 11.9845 30.2184C11.9618 30.2033 11.9444 30.1897 11.9325 30.1783C11.921 30.1665 11.9139 30.1551 11.9113 30.1446C11.9089 30.1337 11.9104 30.1235 11.9151 30.1144L12.7868 28.3822C12.7914 28.3731 12.7986 28.3658 12.8088 28.3612C12.8188 28.3572 12.8321 28.356 12.8495 28.3587C12.8665 28.3611 12.887 28.3672 12.9122 28.3762C12.9373 28.3853 12.968 28.3989 13.0039 28.4169C13.0405 28.4354 13.0703 28.4522 13.0926 28.467C13.1143 28.4816 13.132 28.4948 13.1435 28.5067C13.1551 28.5186 13.162 28.53 13.1647 28.5403C13.1671 28.5513 13.1656 28.5615 13.161 28.5706L12.2893 30.3027ZM14.6816 31.1411C14.6716 31.1569 14.6614 31.1692 14.6502 31.1773C14.6388 31.186 14.6236 31.1901 14.6037 31.1907C14.5838 31.1914 14.5578 31.1881 14.5256 31.1808C14.4939 31.1736 14.4525 31.1627 14.4014 31.1484C14.3607 31.1371 14.3257 31.1273 14.2967 31.1187C14.2677 31.1101 14.2436 31.1016 14.2239 31.0939C14.2041 31.0861 14.1883 31.0784 14.1767 31.0712C14.1649 31.0634 14.1559 31.0553 14.1488 31.0466C14.1421 31.0385 14.1374 31.0288 14.1351 31.0191C14.1329 31.0089 14.1318 30.9969 14.1312 30.9826L14.0323 29.0657C14.0307 29.0253 14.0308 28.9944 14.0347 28.9725C14.0381 28.9504 14.0473 28.9355 14.0634 28.9282C14.0787 28.9212 14.1026 28.9205 14.1335 28.9264C14.165 28.9324 14.2081 28.9432 14.2633 28.9586C14.3103 28.9717 14.3465 28.983 14.3725 28.9925C14.3985 29.0019 14.4179 29.0112 14.4306 29.0199C14.4432 29.029 14.4514 29.0398 14.4539 29.0511C14.4568 29.0631 14.4584 29.0771 14.4594 29.0942L14.5143 30.7534L14.5159 30.7539L15.4115 29.3675C15.4205 29.3515 15.4297 29.3389 15.4383 29.3301C15.4476 29.3208 15.4604 29.3155 15.4772 29.3134C15.4934 29.3117 15.516 29.3136 15.5442 29.3192C15.5719 29.3246 15.6103 29.3342 15.6582 29.3475C15.7052 29.3606 15.7412 29.3724 15.7665 29.3827C15.7916 29.3932 15.8073 29.4054 15.8141 29.4197C15.8201 29.4342 15.8186 29.4519 15.8089 29.4722C15.7998 29.4927 15.7837 29.5185 15.7616 29.5511L14.6816 31.1411ZM17.8658 31.5042C17.8634 31.5349 17.8604 31.5603 17.8561 31.5811C17.8519 31.6014 17.8468 31.6179 17.8404 31.6298C17.8341 31.6424 17.8269 31.6511 17.8184 31.6564C17.8103 31.6618 17.801 31.6637 17.7918 31.6631L16.7651 31.5849C16.7306 31.5822 16.7022 31.5698 16.68 31.5474C16.6578 31.5251 16.6485 31.4907 16.6521 31.4443L16.788 29.6598C16.7915 29.6134 16.8059 29.5808 16.8312 29.5621C16.8565 29.5435 16.8864 29.5354 16.921 29.538L17.9428 29.6158C17.952 29.6165 17.9604 29.6199 17.9675 29.6259C17.9742 29.6318 17.9799 29.6415 17.9844 29.6549C17.9882 29.6687 17.9913 29.6857 17.9924 29.7065C17.9934 29.7278 17.9926 29.7537 17.9901 29.7856C17.9879 29.8153 17.9849 29.84 17.9806 29.8608C17.9763 29.8812 17.9712 29.8976 17.9649 29.9096C17.9586 29.9222 17.9514 29.9309 17.9439 29.9363C17.9359 29.9416 17.9271 29.9437 17.9179 29.943L17.1875 29.8874L17.1496 30.3861L17.7649 30.4329C17.7747 30.4337 17.7831 30.4371 17.7901 30.4435C17.7979 30.4501 17.8036 30.4593 17.8081 30.4721C17.8126 30.4844 17.8151 30.5009 17.8162 30.5221C17.8174 30.5428 17.8165 30.5677 17.8143 30.5969C17.812 30.6277 17.809 30.653 17.8048 30.6727C17.8006 30.6925 17.7955 30.7084 17.7892 30.7198C17.7829 30.7318 17.7757 30.74 17.7673 30.7443C17.7593 30.7491 17.7505 30.7511 17.7408 30.7503L17.1254 30.7035L17.0815 31.28L17.8167 31.336C17.8264 31.3368 17.8348 31.34 17.842 31.3466C17.8496 31.3532 17.8554 31.3628 17.8598 31.3762C17.8642 31.389 17.8667 31.406 17.8679 31.4267C17.869 31.448 17.8681 31.4734 17.8658 31.5042ZM20.8331 31.3307C20.8344 31.342 20.8335 31.352 20.8301 31.3605C20.8267 31.3691 20.8178 31.3767 20.8029 31.3839C20.7874 31.3906 20.7653 31.3972 20.7348 31.403C20.7044 31.4088 20.6632 31.4148 20.6111 31.421C20.567 31.4263 20.5319 31.4294 20.5053 31.4304C20.4788 31.4313 20.4573 31.4301 20.4416 31.426C20.4258 31.4218 20.4142 31.4161 20.4066 31.4078C20.3997 31.3993 20.393 31.3891 20.3872 31.3773L20.1489 30.9429C20.1207 30.894 20.0937 30.8503 20.068 30.813C20.0423 30.7752 20.0146 30.7447 19.9857 30.7209C19.9567 30.6971 19.9241 30.6808 19.8887 30.6709C19.8537 30.6614 19.8136 30.6591 19.7695 30.6644L19.6399 30.6799L19.7329 31.4587C19.7341 31.4689 19.7321 31.4789 19.726 31.4879C19.7201 31.4973 19.7096 31.5056 19.6947 31.5129C19.6796 31.5196 19.6592 31.5264 19.6333 31.5328C19.6078 31.539 19.5741 31.5447 19.5339 31.5495C19.4941 31.5543 19.4606 31.5566 19.4333 31.5566C19.406 31.5566 19.3846 31.5548 19.3684 31.5518C19.3522 31.5483 19.34 31.5427 19.3331 31.5352C19.3256 31.5275 19.3213 31.5182 19.3201 31.508L19.0993 29.6567C19.0937 29.6105 19.1016 29.5757 19.1227 29.5525C19.144 29.5293 19.1717 29.5155 19.2061 29.5114L19.734 29.4484C19.7872 29.4421 19.832 29.4379 19.8667 29.436C19.9013 29.434 19.9333 29.4329 19.9622 29.4321C20.0453 29.4342 20.1213 29.4453 20.1903 29.466C20.2592 29.4861 20.3195 29.5166 20.3707 29.5568C20.4218 29.5971 20.4632 29.6466 20.4948 29.706C20.5264 29.7656 20.5467 29.8356 20.5565 29.9168C20.5646 29.9845 20.5634 30.0479 20.5528 30.1058C20.5419 30.1644 20.5225 30.2174 20.4939 30.2656C20.4659 30.3136 20.4291 30.3566 20.3834 30.3949C20.3379 30.4335 20.2845 30.4661 20.2241 30.494C20.2564 30.5048 20.287 30.5192 20.3164 30.5369C20.3458 30.5548 20.3741 30.5775 20.4013 30.6048C20.4286 30.632 20.4552 30.6632 20.4808 30.6994C20.5063 30.7351 20.532 30.7762 20.5576 30.8222L20.7782 31.2042C20.7985 31.2421 20.8127 31.2699 20.8198 31.2881C20.8273 31.3058 20.8318 31.32 20.8331 31.3307ZM20.1326 30.0104C20.1246 29.9433 20.1028 29.8881 20.0666 29.846C20.0304 29.8034 19.9766 29.7767 19.9049 29.7661C19.8833 29.7632 19.8593 29.7623 19.832 29.7623C19.8048 29.7622 19.7675 29.765 19.7202 29.7707L19.5342 29.7929L19.6031 30.3702L19.8143 30.345C19.8735 30.338 19.9237 30.3249 19.966 30.3051C20.0089 30.2858 20.0431 30.2615 20.0695 30.2322C20.0962 30.2034 20.1145 30.1696 20.1248 30.1324C20.1351 30.0952 20.1378 30.0545 20.1326 30.0104ZM23.0944 30.0128C23.1303 30.115 23.1425 30.2105 23.1317 30.3009C23.1202 30.3909 23.0916 30.4727 23.0447 30.547C22.9974 30.6211 22.9353 30.6863 22.8576 30.7429C22.7798 30.7994 22.6914 30.8448 22.5923 30.8795C22.5253 30.903 22.4616 30.919 22.3999 30.928C22.3387 30.9368 22.2835 30.9413 22.234 30.9409C22.1847 30.9409 22.1421 30.9374 22.1065 30.9305C22.0708 30.9235 22.0445 30.9155 22.0267 30.9074C22.0092 30.8986 21.9934 30.8829 21.9793 30.8603C21.965 30.8378 21.9502 30.8039 21.9341 30.7581C21.9232 30.7268 21.9153 30.7009 21.9101 30.6793C21.9047 30.6576 21.9019 30.6396 21.9018 30.6248C21.9019 30.6104 21.9048 30.5991 21.9101 30.5909C21.9157 30.5826 21.9235 30.5769 21.9337 30.5734C21.9475 30.5685 21.9703 30.5698 22.0017 30.5777C22.033 30.585 22.0721 30.592 22.119 30.598C22.1658 30.6039 22.2203 30.6054 22.2817 30.6023C22.3428 30.5998 22.41 30.5854 22.4831 30.5598C22.5311 30.543 22.572 30.5223 22.6059 30.4978C22.6401 30.4727 22.6667 30.4455 22.6859 30.4153C22.7052 30.385 22.7161 30.3525 22.7197 30.3168C22.7228 30.2813 22.7179 30.2446 22.7046 30.2068C22.6893 30.1629 22.6642 30.1291 22.6293 30.1064C22.5942 30.0832 22.5534 30.0665 22.5059 30.0557C22.4591 30.0445 22.4071 30.0369 22.3505 30.0327C22.2944 30.0282 22.2359 30.0235 22.1754 30.0177C22.1149 30.012 22.0548 30.0027 21.9956 29.989C21.936 29.9761 21.8793 29.9551 21.8261 29.9261C21.7724 29.8974 21.7237 29.8582 21.6793 29.8084C21.635 29.7591 21.599 29.6938 21.5706 29.6131C21.5383 29.5206 21.5269 29.4327 21.5365 29.3503C21.5461 29.2683 21.5722 29.1938 21.6142 29.1268C21.6566 29.0598 21.7129 29.001 21.7841 28.9503C21.8551 28.8995 21.9355 28.8588 22.0245 28.8276C22.0699 28.8117 22.117 28.7991 22.1655 28.7901C22.2139 28.7807 22.2602 28.7753 22.3041 28.7732C22.3483 28.7714 22.3882 28.7723 22.4245 28.7762C22.4606 28.7808 22.4853 28.7859 22.4992 28.7926C22.5122 28.7989 22.522 28.8052 22.5278 28.8106C22.5339 28.8165 22.5402 28.8247 22.5469 28.8355C22.5534 28.8458 22.5599 28.8596 22.5672 28.8771C22.5743 28.8941 22.5823 28.9154 22.5915 28.9414C22.6015 28.97 22.6096 28.9947 22.615 29.0152C22.6205 29.0357 22.6237 29.0529 22.6247 29.0675C22.6257 29.0814 22.6239 29.093 22.6198 29.1007C22.6153 29.1092 22.6076 29.1153 22.5964 29.1193C22.5857 29.123 22.5658 29.122 22.537 29.1166C22.5082 29.1112 22.4731 29.1062 22.4325 29.1016C22.3915 29.0976 22.346 29.0968 22.2953 29.0998C22.2445 29.1021 22.1921 29.113 22.137 29.1323C22.094 29.1474 22.0586 29.1655 22.0302 29.1875C22.002 29.2088 21.9807 29.233 21.9656 29.259C21.9506 29.2848 21.942 29.3125 21.9409 29.3421C21.9393 29.372 21.9439 29.4013 21.9539 29.43C21.969 29.4729 21.9938 29.5061 22.0282 29.5289C22.0628 29.5524 22.1043 29.5694 22.1523 29.5801C22.2 29.5903 22.253 29.5975 22.3106 29.6015C22.3677 29.6056 22.4268 29.6106 22.4872 29.6159C22.5477 29.6216 22.6082 29.6308 22.6686 29.6441C22.7294 29.6572 22.7866 29.6779 22.8408 29.7065C22.8945 29.7352 22.9436 29.7737 22.9877 29.823C23.0318 29.8719 23.0672 29.9351 23.0944 30.0128ZM24.9054 29.6908C24.9105 29.6997 24.9127 29.7096 24.9109 29.7207C24.909 29.7313 24.9027 29.7431 24.8919 29.7557C24.8808 29.7678 24.8643 29.7825 24.8435 29.7984C24.8222 29.8146 24.7936 29.8332 24.7581 29.8539C24.7235 29.8742 24.6937 29.8897 24.6687 29.9006C24.6437 29.9114 24.6228 29.9186 24.6068 29.9223C24.5906 29.9255 24.5772 29.9252 24.567 29.9217C24.5566 29.9179 24.5488 29.9111 24.5437 29.9022L23.5651 28.2281C23.56 28.2193 23.5578 28.2092 23.5595 28.1981C23.5615 28.1876 23.5678 28.1758 23.5794 28.1627C23.5908 28.1498 23.6071 28.1358 23.6284 28.1196C23.6496 28.1035 23.6777 28.0851 23.7123 28.0649C23.7478 28.0442 23.7781 28.0283 23.8027 28.0177C23.8267 28.0074 23.8474 27.9998 23.8636 27.9966C23.88 27.9933 23.8933 27.9936 23.9034 27.9971C23.9139 28.0011 23.9216 28.0078 23.9268 28.0167L24.9054 29.6908ZM26.0148 26.5953C26.0351 26.6186 26.0514 26.6389 26.0639 26.6574C26.0761 26.6755 26.0846 26.691 26.0891 26.7044C26.0939 26.7181 26.0954 26.7298 26.0932 26.7395C26.0918 26.7494 26.0869 26.7579 26.08 26.764L25.6931 27.1012L26.7804 28.3487C26.7872 28.3565 26.7911 28.366 26.7915 28.3771C26.7916 28.3879 26.7876 28.4007 26.7794 28.415C26.7707 28.429 26.7572 28.4466 26.7389 28.4667C26.7207 28.487 26.6965 28.5102 26.6663 28.5366C26.6361 28.5629 26.6097 28.5837 26.5872 28.599C26.5646 28.6144 26.5454 28.6253 26.5304 28.632C26.515 28.6382 26.5018 28.6404 26.4912 28.6388C26.4802 28.637 26.4713 28.6318 26.4645 28.6241L25.3772 27.3765L24.9904 27.7137C24.9826 27.7204 24.9736 27.7241 24.9635 27.7241C24.9544 27.7243 24.9431 27.7212 24.93 27.7146C24.9179 27.708 24.9033 27.6977 24.887 27.6832C24.8703 27.6682 24.8524 27.6493 24.8321 27.626C24.8116 27.6024 24.7946 27.5814 24.782 27.5628C24.7694 27.5442 24.761 27.528 24.7561 27.515C24.7513 27.5011 24.7501 27.49 24.7515 27.4809C24.7534 27.4715 24.7585 27.4633 24.7662 27.4565L25.8559 26.5069C25.8628 26.5008 25.8712 26.4973 25.8812 26.4964C25.8912 26.4955 25.9022 26.4982 25.9152 26.5048C25.9277 26.5111 25.9424 26.522 25.9589 26.5369C25.9756 26.552 25.9942 26.5716 26.0148 26.5953ZM28.1081 25.9295L28.6796 26.371C28.6877 26.3772 28.6934 26.3857 28.696 26.3966C28.6982 26.4072 28.6967 26.4204 28.6914 26.4362C28.6857 26.4516 28.6759 26.4714 28.6619 26.4948C28.6479 26.5182 28.6287 26.5457 28.6042 26.5775C28.579 26.61 28.5569 26.636 28.5381 26.6551C28.5197 26.6736 28.503 26.688 28.4892 26.6979C28.4747 26.708 28.4622 26.7126 28.4521 26.7123C28.4413 26.7122 28.4316 26.7089 28.4235 26.7026L27.8519 26.2611L26.6233 26.0222C26.5802 26.0142 26.5478 26.0056 26.5271 25.9972C26.5063 25.9887 26.4954 25.9761 26.494 25.9594C26.4927 25.9433 26.501 25.921 26.5188 25.8936C26.5365 25.8662 26.5634 25.8296 26.5988 25.7838C26.6286 25.7452 26.653 25.7154 26.6726 25.6937C26.6921 25.6719 26.709 25.6561 26.724 25.6465C26.739 25.6369 26.7525 25.6316 26.7648 25.6308C26.7772 25.6308 26.7912 25.6321 26.8079 25.6354L27.3475 25.7621C27.3996 25.7743 27.4539 25.7882 27.5096 25.8038C27.5659 25.8193 27.6237 25.8366 27.6848 25.855L27.6867 25.8525C27.6536 25.8015 27.6224 25.7515 27.5925 25.7016C27.5626 25.6519 27.5348 25.6045 27.5085 25.5588L27.2498 25.0738C27.2394 25.0589 27.2326 25.0455 27.2299 25.0331C27.2264 25.0208 27.2273 25.0064 27.232 24.9897C27.2369 24.9735 27.2468 24.9537 27.2619 24.9306C27.2767 24.9079 27.2983 24.878 27.3261 24.842C27.3628 24.7945 27.3926 24.7579 27.4148 24.7334C27.4375 24.7085 27.4569 24.6948 27.4728 24.692C27.4894 24.6891 27.5043 24.6972 27.518 24.7159C27.5318 24.7342 27.5475 24.7627 27.5663 24.8011L28.1081 25.9295Z" fill="#5798FF"/>
<path d="M6.92753 12.728C7.02618 12.7726 7.10376 12.8298 7.16171 12.8999C7.21898 12.9704 7.25833 13.0476 7.27977 13.1327C7.30069 13.2181 7.30503 13.3081 7.29237 13.4034C7.27955 13.4986 7.25136 13.5939 7.20811 13.6896C7.17888 13.7543 7.14642 13.8114 7.11036 13.8623C7.07453 13.9126 7.03967 13.9557 7.00519 13.9912C6.97116 14.027 6.9393 14.0553 6.90962 14.0764C6.87993 14.0973 6.85594 14.1108 6.83788 14.1181C6.81944 14.1246 6.79717 14.1253 6.77101 14.12C6.74493 14.1147 6.71022 14.102 6.66592 14.082C6.63578 14.0683 6.61157 14.0562 6.59223 14.0451C6.57289 14.034 6.55797 14.0237 6.54718 14.0134C6.53683 14.0033 6.53061 13.9935 6.52836 13.9841C6.52619 13.9743 6.52754 13.9647 6.53204 13.9549C6.53803 13.9416 6.55468 13.9259 6.58204 13.9086C6.60902 13.8911 6.64103 13.8675 6.67769 13.8378C6.71427 13.8079 6.75295 13.7697 6.79313 13.723C6.83353 13.677 6.86944 13.6186 6.90137 13.548C6.92228 13.5016 6.93563 13.4577 6.94132 13.4163C6.94672 13.3742 6.94545 13.3362 6.93683 13.3014C6.92821 13.2666 6.91224 13.2363 6.88885 13.209C6.86531 13.1823 6.83533 13.1605 6.7989 13.144C6.75647 13.1248 6.71479 13.1196 6.67424 13.1292C6.63316 13.1385 6.59291 13.1567 6.55235 13.1834C6.51195 13.2097 6.47057 13.242 6.42844 13.2801C6.38646 13.3176 6.34276 13.3566 6.29681 13.3964C6.25086 13.4363 6.20258 13.4733 6.15184 13.5067C6.10139 13.5409 6.04711 13.5675 5.98939 13.586C5.93152 13.605 5.86961 13.6132 5.80289 13.611C5.7367 13.6089 5.66451 13.5899 5.58655 13.5547C5.49728 13.5144 5.42591 13.4619 5.37277 13.3981C5.32014 13.3345 5.28424 13.2642 5.26475 13.1876C5.24556 13.1106 5.24188 13.0293 5.25425 12.9429C5.26662 12.8564 5.29256 12.7701 5.33139 12.6842C5.35118 12.6403 5.37472 12.5975 5.4017 12.5562C5.42816 12.5147 5.45635 12.4775 5.48506 12.4442C5.51429 12.4111 5.54255 12.3828 5.57036 12.3592C5.59855 12.3364 5.61931 12.322 5.63371 12.3165C5.64727 12.3114 5.65859 12.3088 5.66646 12.3083C5.67501 12.3079 5.68528 12.309 5.69772 12.3116C5.70972 12.314 5.72418 12.3188 5.7418 12.3256C5.75904 12.3322 5.77995 12.3411 5.80514 12.3525C5.8328 12.365 5.85626 12.3762 5.87478 12.3864C5.89337 12.3965 5.90806 12.4061 5.91931 12.4154C5.93003 12.4244 5.93722 12.4336 5.94 12.4419C5.94299 12.4511 5.94217 12.4607 5.93722 12.4716C5.93257 12.482 5.91811 12.4956 5.89427 12.5127C5.87051 12.5299 5.8427 12.5519 5.81129 12.578C5.7801 12.605 5.74817 12.6374 5.71534 12.6761C5.68191 12.7145 5.65364 12.7598 5.62958 12.8131C5.61084 12.8546 5.59945 12.8928 5.59578 12.9286C5.5918 12.9636 5.59458 12.9957 5.6029 13.0245C5.61129 13.0532 5.62538 13.0786 5.64607 13.0998C5.66654 13.1216 5.69098 13.1385 5.71856 13.151C5.76001 13.1697 5.80117 13.1747 5.8415 13.1656C5.88235 13.1567 5.92328 13.1384 5.96413 13.1112C6.00446 13.0837 6.04629 13.0502 6.08894 13.0113C6.13122 12.9728 6.17575 12.9335 6.22117 12.8935C6.26713 12.8537 6.31555 12.8162 6.36682 12.7817C6.41825 12.7467 6.47267 12.7196 6.53076 12.7002C6.58863 12.6812 6.6504 12.6722 6.71659 12.6743C6.78233 12.6761 6.85257 12.6942 6.92753 12.728ZM9.12434 10.3634C9.16182 10.3771 9.19068 10.3894 9.21017 10.4006C9.22958 10.4117 9.24008 10.4255 9.2421 10.4414C9.24315 10.4575 9.23595 10.4781 9.21969 10.5031C9.20387 10.5278 9.17921 10.5608 9.1475 10.6012C9.11399 10.6438 9.08753 10.6767 9.06789 10.6991C9.0478 10.7219 9.03124 10.7377 9.01737 10.7476C9.00388 10.7569 8.99203 10.7614 8.98124 10.7611C8.97082 10.7612 8.95852 10.7584 8.94548 10.753L8.53792 10.6042L8.05959 11.2129L8.29512 11.5625C8.30434 11.5752 8.31079 11.5871 8.31408 11.5987C8.31813 11.6101 8.31708 11.6238 8.31243 11.6394C8.30771 11.655 8.29737 11.6744 8.28163 11.6978C8.26596 11.7213 8.24407 11.7509 8.21596 11.7867C8.18583 11.825 8.16116 11.8537 8.14152 11.8735C8.12196 11.8932 8.10427 11.9034 8.0886 11.9041C8.07211 11.9049 8.05607 11.8972 8.04063 11.8809C8.02518 11.8646 8.00727 11.8402 7.98561 11.8074L6.94395 10.1847C6.9336 10.169 6.92678 10.154 6.92356 10.1405C6.91966 10.1271 6.92161 10.1114 6.92836 10.0933C6.9354 10.0747 6.94815 10.0523 6.96719 10.0253C6.986 9.99886 7.01231 9.96445 7.04574 9.92187C7.08427 9.87285 7.11546 9.83409 7.13945 9.80613C7.16388 9.77772 7.18457 9.75763 7.20196 9.74504C7.21928 9.7326 7.23517 9.72645 7.24986 9.72622C7.26456 9.72682 7.28187 9.73005 7.30129 9.73777L9.12434 10.3634ZM7.35736 10.1729L7.35638 10.1741L7.86634 10.9384L8.22218 10.4856L7.35736 10.1729ZM11.0217 8.67925C11.0411 8.70383 11.0571 8.7258 11.0683 8.74446C11.0795 8.7632 11.0872 8.77992 11.092 8.79401C11.0968 8.80878 11.0981 8.821 11.0954 8.83059C11.093 8.84079 11.0878 8.84896 11.0796 8.8554L10.3404 9.43643C10.3131 9.45786 10.2838 9.46783 10.2523 9.46634C10.2209 9.46491 10.1908 9.44587 10.162 9.40929L9.00995 7.94343C9.00365 7.93541 9.00013 7.92574 9.00028 7.91457C9.00088 7.90385 9.00545 7.89125 9.01444 7.87731C9.02336 7.86329 9.03806 7.84703 9.05732 7.82769C9.07659 7.80842 9.102 7.78638 9.13356 7.76157C9.16579 7.73624 9.19368 7.71645 9.21654 7.70258C9.23903 7.68909 9.25837 7.67867 9.27403 7.67327C9.28978 7.6678 9.30304 7.6663 9.31354 7.66832C9.32448 7.67079 9.33303 7.67649 9.3394 7.68459L10.36 8.98314L10.8669 8.58472C10.8751 8.57827 10.8843 8.57437 10.894 8.57445C10.9041 8.57407 10.9149 8.5773 10.9274 8.58457C10.9397 8.59147 10.9535 8.60278 10.9693 8.61853C10.9848 8.63389 11.002 8.65413 11.0217 8.67925ZM12.4158 7.1789L12.745 7.82169C12.7497 7.83084 12.7512 7.84096 12.7488 7.85183C12.7463 7.86232 12.7394 7.87379 12.7279 7.88571C12.7161 7.89725 12.6989 7.91097 12.6762 7.92619C12.6536 7.9414 12.6245 7.95812 12.5888 7.97641C12.5522 7.99523 12.521 8.00924 12.496 8.01846C12.4714 8.02746 12.4502 8.03346 12.4335 8.03653C12.4161 8.03938 12.4028 8.03825 12.3937 8.03376C12.3841 8.02903 12.3767 8.02184 12.372 8.01269L12.0428 7.3699L11.0328 6.63056C10.9972 6.605 10.9717 6.58341 10.9565 6.56692C10.9413 6.55035 10.9368 6.53439 10.9427 6.51865C10.9484 6.50358 10.9654 6.48694 10.9931 6.4697C11.0208 6.45253 11.0607 6.43079 11.1122 6.4044C11.1556 6.38222 11.1903 6.36565 11.2173 6.35426C11.2444 6.34286 11.2663 6.33589 11.284 6.33357C11.3016 6.33117 11.3161 6.33222 11.3276 6.33671C11.3388 6.34196 11.351 6.34908 11.3646 6.35913L11.7989 6.70357C11.8408 6.73686 11.884 6.77246 11.9278 6.81032C11.9722 6.8484 12.0172 6.88858 12.0645 6.93123L12.0674 6.92973C12.0591 6.86954 12.0522 6.81099 12.0463 6.7532C12.0404 6.69548 12.0355 6.64076 12.0312 6.58828L12.0036 6.03919C12.0005 6.02128 12.0001 6.00629 12.0029 5.99392C12.005 5.98133 12.0119 5.96866 12.0233 5.95546C12.0346 5.94294 12.0519 5.9293 12.0755 5.91476C12.0986 5.90052 12.1309 5.88275 12.1714 5.86199C12.2248 5.83463 12.2673 5.81409 12.2979 5.80149C12.329 5.7886 12.3524 5.78448 12.368 5.78868C12.3842 5.79317 12.3943 5.80689 12.3986 5.82953C12.4034 5.85202 12.4055 5.8844 12.4061 5.92728L12.4158 7.1789ZM16.9269 6.63438C16.9287 6.6445 16.9278 6.65462 16.9234 6.66414C16.9189 6.67321 16.9095 6.68206 16.8955 6.69001C16.8815 6.6975 16.862 6.70537 16.8375 6.71302C16.8131 6.72066 16.7813 6.72801 16.743 6.73491C16.7052 6.74165 16.6734 6.74563 16.6478 6.74698C16.6222 6.74825 16.6017 6.7475 16.5859 6.74533C16.5706 6.74263 16.5587 6.73761 16.5514 6.73056C16.5435 6.72321 16.5386 6.71422 16.5367 6.7041L16.2429 5.05901L16.2396 5.05953L15.9497 6.80732C15.9479 6.82141 15.9435 6.83371 15.9355 6.8445C15.9275 6.85529 15.9165 6.86444 15.901 6.87269C15.8858 6.88033 15.8657 6.88775 15.8414 6.89375C15.8167 6.89982 15.7864 6.90582 15.7513 6.91204C15.7156 6.91841 15.6855 6.92276 15.66 6.92448C15.6345 6.92628 15.6129 6.92583 15.5959 6.92276C15.5788 6.91976 15.5648 6.91511 15.5537 6.90882C15.5432 6.90192 15.535 6.893 15.5298 6.88236L14.6729 5.33943L14.6697 5.34003L14.9636 6.98513C14.9654 6.99525 14.9645 7.00537 14.9601 7.01489C14.9557 7.02396 14.9463 7.0328 14.9318 7.0409C14.9167 7.04854 14.8972 7.05642 14.8732 7.06399C14.8493 7.07156 14.8181 7.07875 14.7798 7.08565C14.7419 7.0924 14.7102 7.09637 14.6846 7.09764C14.6589 7.09899 14.6379 7.09832 14.6221 7.09622C14.6063 7.09352 14.5944 7.0885 14.587 7.08153C14.5797 7.07403 14.5753 7.06496 14.5735 7.05484L14.2519 5.25413C14.2424 5.20091 14.249 5.15788 14.2721 5.1246C14.2953 5.09124 14.3302 5.0707 14.3776 5.06223L14.6462 5.01425C14.6942 5.00571 14.7364 5.00203 14.7719 5.00391C14.808 5.00578 14.8401 5.0132 14.8684 5.02685C14.8961 5.04056 14.9217 5.06073 14.9436 5.08764C14.9654 5.11455 14.987 5.14866 15.007 5.19011L15.6575 6.31618L15.6639 6.31505L15.9001 5.03329C15.9056 4.98727 15.914 4.94784 15.9245 4.91463C15.9357 4.8818 15.95 4.85399 15.968 4.8315C15.986 4.80901 16.0091 4.79117 16.0365 4.77798C16.0644 4.76478 16.0978 4.75496 16.1362 4.74807L16.4133 4.69859C16.4416 4.6935 16.4662 4.69305 16.4878 4.69687C16.5093 4.70017 16.5282 4.70774 16.5436 4.71988C16.5594 4.73135 16.572 4.74664 16.5825 4.76576C16.5931 4.78472 16.6005 4.80759 16.6052 4.83375L16.9269 6.63438ZM20.0429 6.33229C20.0337 6.40478 20.0151 6.46902 19.9878 6.52554C19.9605 6.58154 19.9265 6.63019 19.8858 6.67082C19.8447 6.71144 19.7978 6.7448 19.7453 6.77134C19.6923 6.79795 19.6353 6.81744 19.574 6.83146C19.5128 6.84495 19.448 6.8526 19.3802 6.8538C19.3123 6.85552 19.2375 6.85087 19.156 6.84053L18.6151 6.77179C18.5808 6.76737 18.5531 6.7535 18.532 6.73004C18.511 6.70672 18.5035 6.67186 18.5093 6.62569L18.7351 4.85031C18.7409 4.80414 18.757 4.77228 18.7831 4.75489C18.8094 4.73757 18.8397 4.73098 18.8741 4.73532L19.3842 4.80024C19.5088 4.81606 19.6127 4.84019 19.6965 4.8722C19.7803 4.90406 19.8488 4.94499 19.9024 4.99491C19.9566 5.04491 19.9949 5.10436 20.0179 5.17325C20.0413 5.24228 20.0471 5.32054 20.036 5.40862C20.0297 5.45802 20.0173 5.50337 19.9994 5.54528C19.9815 5.58718 19.9577 5.62459 19.9297 5.65697C19.9009 5.68995 19.8674 5.71731 19.8285 5.74018C19.79 5.76319 19.7475 5.78013 19.7003 5.79107C19.7563 5.80906 19.8077 5.83418 19.8533 5.86663C19.8988 5.89917 19.9369 5.93845 19.9677 5.98432C19.9989 6.03035 20.0212 6.0829 20.0351 6.14077C20.0489 6.19931 20.0518 6.26303 20.0429 6.33229ZM19.6171 5.40615C19.6224 5.3653 19.6205 5.32797 19.6123 5.29363C19.6041 5.2599 19.5888 5.23007 19.5663 5.2054C19.5438 5.18074 19.5142 5.16058 19.4776 5.14386C19.4408 5.12782 19.3905 5.11538 19.3266 5.1072L19.1183 5.08074L19.051 5.60914L19.2815 5.63845C19.3411 5.64602 19.3898 5.64513 19.427 5.63516C19.4643 5.62571 19.4962 5.61012 19.5231 5.58838C19.5498 5.56672 19.5707 5.53988 19.5867 5.5087C19.6022 5.47676 19.6124 5.44318 19.6171 5.40615ZM19.6125 6.29286C19.6185 6.24556 19.6158 6.20216 19.605 6.16251C19.5942 6.12353 19.575 6.08942 19.5476 6.06033C19.5207 6.03117 19.4845 6.00696 19.439 5.98702C19.3935 5.96761 19.3332 5.95284 19.2574 5.94317L19.0126 5.91206L18.9388 6.49203L19.2375 6.53004C19.2949 6.53731 19.344 6.53754 19.3853 6.53026C19.426 6.52337 19.4621 6.5095 19.4941 6.48956C19.5257 6.46947 19.5519 6.44338 19.5731 6.4101C19.5935 6.37719 19.6067 6.33799 19.6125 6.29286ZM22.5583 7.59029C22.547 7.61892 22.5366 7.64223 22.5264 7.6609C22.5163 7.67904 22.5067 7.69328 22.4971 7.70288C22.4873 7.71292 22.4778 7.71914 22.4681 7.72169C22.4588 7.72447 22.4493 7.72357 22.4408 7.72019L21.4828 7.34254C21.4506 7.32987 21.4272 7.30956 21.4126 7.28167C21.398 7.25386 21.3993 7.21826 21.4163 7.17493L22.0727 5.50997C22.0898 5.46664 22.1132 5.43981 22.1428 5.42939C22.1726 5.41904 22.2035 5.42009 22.2358 5.43284L23.1891 5.80869C23.1977 5.81206 23.2047 5.81784 23.2098 5.82563C23.2144 5.8332 23.2171 5.84415 23.2173 5.85824C23.2168 5.87263 23.2147 5.8898 23.2097 5.90996C23.2045 5.93058 23.196 5.95516 23.1843 5.98485C23.1734 6.01251 23.1632 6.03537 23.153 6.05396C23.1429 6.07218 23.1332 6.08635 23.1236 6.09594C23.1138 6.10606 23.1043 6.11221 23.0956 6.11513C23.0864 6.11798 23.0773 6.1173 23.0688 6.11393L22.3874 5.84527L22.2039 6.31063L22.7781 6.53701C22.7872 6.54053 22.7941 6.54623 22.799 6.55455C22.8044 6.5631 22.8073 6.57352 22.8078 6.58708C22.8085 6.60013 22.806 6.61662 22.8007 6.63723C22.7958 6.6574 22.7876 6.68094 22.7769 6.70815C22.7656 6.73686 22.7553 6.76017 22.7453 6.77779C22.7355 6.7954 22.7261 6.80912 22.7166 6.81826C22.707 6.82778 22.6978 6.83356 22.6884 6.83505C22.6794 6.8373 22.6704 6.8367 22.6613 6.83311L22.0872 6.60672L21.8751 7.14464L22.5611 7.41503C22.5702 7.41863 22.5771 7.42432 22.5821 7.43264C22.5874 7.44119 22.5902 7.45206 22.5904 7.46615C22.5908 7.47972 22.5882 7.49674 22.5832 7.51682C22.578 7.53751 22.5696 7.5615 22.5583 7.59029ZM25.0566 9.26686C25.0496 9.27653 25.0415 9.28336 25.0317 9.28695C25.0215 9.291 25.0086 9.29048 24.9915 9.2856C24.9748 9.28103 24.9541 9.27174 24.9289 9.25772C24.9036 9.2437 24.8736 9.22436 24.8383 9.19925C24.7823 9.15945 24.7437 9.12871 24.7221 9.10667C24.7002 9.08516 24.6873 9.06597 24.6829 9.04963C24.6783 9.03374 24.6775 9.01717 24.6798 9.00083L24.7389 7.84718L24.1742 8.64131C24.1676 8.65061 24.159 8.65713 24.1487 8.66043C24.1392 8.66358 24.1254 8.66313 24.1095 8.65841C24.0933 8.65421 24.0735 8.64551 24.0501 8.63284C24.027 8.6204 23.9982 8.60196 23.9652 8.57842C23.9326 8.55518 23.9061 8.53442 23.8859 8.51613C23.8658 8.49776 23.851 8.48202 23.8417 8.468C23.8324 8.45414 23.8272 8.44177 23.8261 8.43112C23.8255 8.41995 23.8288 8.40968 23.8354 8.40039L24.9563 6.82411C24.9631 6.81444 24.9715 6.80837 24.9822 6.80537C24.9927 6.80282 25.006 6.80372 25.0219 6.80837C25.0379 6.81302 25.0573 6.82224 25.0812 6.83521C25.1051 6.84825 25.1334 6.86639 25.1661 6.88955C25.1992 6.91309 25.226 6.93423 25.2454 6.95192C25.265 6.96991 25.2801 6.98528 25.2897 6.99877C25.2993 7.01234 25.3046 7.02463 25.3047 7.03468C25.305 7.04555 25.302 7.05537 25.2951 7.06504L24.7885 7.77754L25.7838 7.41458C25.7978 7.40798 25.8115 7.40371 25.8256 7.40243C25.8394 7.40094 25.8549 7.40333 25.8717 7.40866C25.8882 7.41443 25.9081 7.42395 25.931 7.43752C25.9538 7.45108 25.9819 7.4696 26.0154 7.49351C26.0498 7.51795 26.0771 7.53939 26.0977 7.55798C26.1183 7.57672 26.1334 7.59276 26.1436 7.6073C26.1538 7.62117 26.1586 7.63391 26.1588 7.64403C26.1591 7.65475 26.1564 7.6642 26.1501 7.67304C26.1397 7.68759 26.1251 7.69973 26.1063 7.7103C26.0874 7.72012 26.0556 7.73399 26.0098 7.75258L25.1243 8.02828L25.0864 9.13988C25.0802 9.18868 25.0748 9.22069 25.0706 9.23501C25.0664 9.24925 25.0616 9.25974 25.0566 9.26686ZM27.9167 10.8523C27.7882 10.9636 27.6594 11.0473 27.5302 11.1032C27.4012 11.1592 27.2737 11.1865 27.1484 11.1841C27.023 11.1823 26.9013 11.1509 26.7836 11.0903C26.6656 11.0293 26.5539 10.9377 26.448 10.8153C26.3434 10.6946 26.2683 10.5756 26.2221 10.4587C26.1756 10.3414 26.1587 10.2251 26.1717 10.1085C26.1846 9.99286 26.2278 9.87652 26.3018 9.76018C26.3757 9.64384 26.4809 9.5263 26.6175 9.40794C26.7428 9.29947 26.8695 9.21762 26.9974 9.16267C27.1253 9.10772 27.2515 9.08149 27.3768 9.08388C27.5018 9.08598 27.6235 9.11739 27.7413 9.17796C27.8597 9.23868 27.9721 9.33036 28.0787 9.45359C28.1805 9.57098 28.2546 9.68792 28.3014 9.80493C28.348 9.9215 28.3653 10.0383 28.3523 10.1547C28.3402 10.2713 28.2981 10.3872 28.226 10.5033C28.1536 10.6198 28.0509 10.736 27.9167 10.8523ZM27.6136 10.5347C27.6951 10.4641 27.7635 10.3934 27.8191 10.323C27.8748 10.2525 27.9134 10.1812 27.9343 10.1094C27.9551 10.0376 27.9565 9.96483 27.9383 9.89099C27.9198 9.81753 27.8777 9.74227 27.8114 9.66581C27.7444 9.58845 27.6737 9.53657 27.6 9.51019C27.5259 9.48343 27.4501 9.47526 27.3737 9.48553C27.2974 9.49579 27.221 9.52256 27.1446 9.56581C27.0679 9.60936 26.9934 9.66243 26.9206 9.72548C26.8359 9.79886 26.7655 9.87135 26.7089 9.94249C26.6525 10.0137 26.6135 10.0853 26.5914 10.1575C26.5698 10.2292 26.5684 10.3013 26.5874 10.3743C26.6067 10.4472 26.6497 10.5224 26.7167 10.5997C26.7836 10.677 26.854 10.7293 26.9277 10.7557C27.0013 10.7828 27.0772 10.7909 27.1542 10.78C27.2315 10.769 27.3087 10.7415 27.3859 10.6976C27.4631 10.6536 27.5392 10.5992 27.6136 10.5347ZM28.323 13.6477C28.3045 13.6501 28.2885 13.6502 28.2751 13.6468C28.2611 13.6435 28.2482 13.6346 28.235 13.6198C28.2217 13.6049 28.2076 13.5828 28.1925 13.5534C28.1776 13.5245 28.1595 13.4857 28.1377 13.4374C28.1203 13.3989 28.1053 13.3658 28.0934 13.338C28.0814 13.3102 28.0724 13.2863 28.0656 13.2662C28.0589 13.246 28.0548 13.2289 28.0529 13.2155C28.0512 13.2014 28.0517 13.1893 28.0538 13.1783C28.0556 13.1679 28.0601 13.1582 28.0661 13.1501C28.0724 13.1419 28.081 13.1333 28.0916 13.1238L29.4987 11.8182C29.5287 11.791 29.5525 11.7714 29.5718 11.7603C29.5908 11.7487 29.6082 11.7462 29.6241 11.7538C29.6393 11.7612 29.6551 11.779 29.6705 11.8065C29.6861 11.8346 29.7054 11.8745 29.7291 11.9268C29.7491 11.9712 29.7637 12.0062 29.7731 12.0322C29.7825 12.0583 29.7878 12.0791 29.7893 12.0944C29.7905 12.11 29.7875 12.1232 29.7804 12.1324C29.7729 12.1422 29.7633 12.1525 29.7508 12.1642L28.5132 13.2707L28.5138 13.2721L30.1519 13.0699C30.1699 13.0666 30.1854 13.0654 30.1978 13.0665C30.2109 13.0677 30.2231 13.0741 30.2355 13.0856C30.2473 13.0969 30.2603 13.1154 30.2741 13.1407C30.2877 13.1654 30.305 13.201 30.3255 13.2463C30.3456 13.2908 30.3596 13.326 30.3679 13.352C30.376 13.378 30.3767 13.3978 30.3701 13.4122C30.3627 13.4262 30.3483 13.4363 30.3265 13.4419C30.3049 13.4481 30.2748 13.4523 30.2356 13.4563L28.323 13.6477Z" fill="#5798FF"/>
<path d="M48.3902 2.41406V6.30026H48.0848C47.9858 5.55358 47.8076 4.95959 47.5474 4.51837C47.4229 4.29776 47.2646 4.09694 47.0751 3.9216C46.8856 3.74335 46.6791 3.5935 46.4557 3.46899C46.2322 3.34455 45.9974 3.24838 45.7457 3.18054C45.4968 3.10985 45.2451 3.07589 44.9905 3.07589C44.7105 3.07589 44.4503 3.12394 44.207 3.22012C43.9638 3.31629 43.7545 3.44642 43.5763 3.60482C43.3981 3.76598 43.2595 3.94986 43.1606 4.1563C43.0616 4.36282 43.0107 4.57774 43.0107 4.79835C43.0107 5.10666 43.0814 5.37817 43.2256 5.60732C43.367 5.83641 43.565 6.0457 43.8167 6.24082C44.0657 6.43317 44.3598 6.61982 44.6992 6.8037C45.0386 6.98473 45.4063 7.1827 45.8023 7.39199C46.2464 7.62962 46.6706 7.86155 47.0722 8.08778C47.4738 8.31409 47.8274 8.56296 48.1329 8.83732C48.4384 9.10883 48.6816 9.42276 48.8654 9.7735C49.0465 10.1242 49.1369 10.5428 49.1369 11.0349C49.1369 11.4536 49.0493 11.8552 48.8767 12.2314C48.7014 12.6104 48.4609 12.9413 48.147 13.227C47.8359 13.5098 47.4625 13.7361 47.0298 13.9058C46.597 14.0727 46.1219 14.1575 45.6043 14.1575C45.4091 14.1575 45.2451 14.1547 45.1065 14.1491C44.9679 14.1434 44.835 14.132 44.7105 14.1122C44.5833 14.0925 44.4503 14.0613 44.3174 14.0218C44.1816 13.9793 44.0204 13.9227 43.8309 13.8521C43.7008 13.8012 43.565 13.7559 43.4264 13.7163C43.2879 13.6739 43.1606 13.6399 43.0474 13.6117C42.9314 13.5833 42.8325 13.5635 42.7533 13.5466C42.6712 13.5296 42.6203 13.5211 42.6006 13.5211C42.462 13.5211 42.3516 13.5635 42.2725 13.6455C42.1932 13.7276 42.1339 13.8973 42.0943 14.1575H41.7888V10.3053H42.0943C42.165 10.7097 42.2498 11.0604 42.346 11.3631C42.4422 11.6629 42.5524 11.9146 42.6741 12.1211C42.7957 12.319 42.9512 12.5029 43.1436 12.6755C43.3388 12.848 43.5537 12.995 43.7941 13.1195C44.0346 13.244 44.2919 13.3401 44.572 13.408C44.8491 13.4787 45.1348 13.5126 45.4261 13.5126C45.774 13.5126 46.0851 13.4617 46.3623 13.3627C46.6367 13.2638 46.8714 13.1308 47.0637 12.9611C47.2589 12.7942 47.406 12.5962 47.5078 12.3728C47.6096 12.1493 47.6605 11.9174 47.6605 11.6742C47.6605 11.315 47.587 11.0123 47.4371 10.7663C47.29 10.5202 47.0892 10.3024 46.8375 10.1072C46.5886 9.91496 46.2973 9.73108 45.9635 9.55289C45.6297 9.37756 45.2791 9.17674 44.9085 8.95613C44.4899 8.70718 44.0883 8.47248 43.698 8.24902C43.3104 8.02557 42.9682 7.77947 42.6712 7.51081C42.3715 7.24492 42.1339 6.93946 41.9557 6.59726C41.7775 6.25499 41.687 5.84488 41.687 5.3697C41.687 4.97375 41.769 4.59475 41.9359 4.23554C42.0999 3.87633 42.3291 3.56239 42.6203 3.29081C42.9145 3.02215 43.2595 2.80716 43.6583 2.64877C44.0572 2.49322 44.4956 2.41406 44.9679 2.41406C45.5533 2.41406 46.1841 2.56114 46.8601 2.85243C47.1599 2.99104 47.3777 3.05888 47.5134 3.05888C47.6577 3.05888 47.7737 3.01645 47.867 2.93167C47.9575 2.84681 48.031 2.67425 48.0848 2.41406H48.3902ZM57.8201 10.1356H53.4729L52.712 11.9118C52.5254 12.3445 52.432 12.6698 52.432 12.8932C52.432 12.9809 52.4462 13.0629 52.4773 13.1365C52.5084 13.2129 52.5706 13.2807 52.6639 13.3429C52.7601 13.408 52.8931 13.4617 53.0656 13.5013C53.2353 13.5437 53.4616 13.5749 53.7387 13.5975V13.903H50.1919V13.5975C50.6558 13.5155 50.9613 13.408 51.1055 13.2751C51.2498 13.1421 51.3969 12.9413 51.5495 12.6726C51.6995 12.4067 51.8663 12.0673 52.0417 11.66L55.9873 2.41406H56.2786L60.1903 11.7591C60.3515 12.1437 60.4986 12.4548 60.6344 12.6896C60.7701 12.9243 60.9087 13.1081 61.0529 13.2383C61.1972 13.3656 61.3528 13.456 61.5197 13.507C61.6894 13.5551 61.8902 13.5862 62.1221 13.5975V13.903H57.6928V13.5975C57.9134 13.5862 58.0973 13.5607 58.2444 13.524C58.3942 13.4844 58.5102 13.4335 58.5951 13.374C58.6799 13.3118 58.7394 13.244 58.7761 13.1647C58.8129 13.0884 58.8298 13.0035 58.8298 12.9074C58.8355 12.7857 58.81 12.6302 58.7507 12.4407C58.6941 12.2483 58.6092 12.0193 58.499 11.7534L57.8201 10.1356ZM57.5882 9.52463L55.6818 4.98785L53.7302 9.52463H57.5882ZM72.0498 10.7974L72.3242 10.8568L71.3568 13.903H62.651V13.5975H63.0725C63.5419 13.5975 63.8814 13.4419 64.0907 13.1336C64.2066 12.9611 64.2632 12.5538 64.2632 11.9061V4.65697C64.2632 3.94986 64.1868 3.50864 64.0313 3.33893C63.8163 3.09568 63.4967 2.97402 63.0725 2.97402H62.651V2.66856H67.7421V2.97402C67.4366 2.97402 67.1849 2.98819 66.9841 3.01645C66.7805 3.04194 66.6136 3.08436 66.4835 3.14096C66.3562 3.19471 66.2516 3.2597 66.178 3.33323C66.1045 3.40962 66.0423 3.49163 65.9914 3.57933C65.9037 3.74904 65.8584 4.17332 65.8584 4.84647V11.9061C65.8584 12.0984 65.8641 12.2653 65.8782 12.4039C65.8924 12.5425 65.9178 12.6556 65.9489 12.7462C65.9828 12.8395 66.0281 12.913 66.0819 12.9696C66.1385 13.029 66.2091 13.0743 66.2996 13.1081C66.4298 13.1619 66.8625 13.1902 67.5922 13.1902H68.4153C69.2723 13.1902 69.8776 13.128 70.2339 13.0007C70.4093 12.9385 70.5761 12.8564 70.7318 12.7518C70.8845 12.6471 71.0372 12.5085 71.1843 12.3332C71.3285 12.1606 71.4727 11.9486 71.6142 11.6996C71.7556 11.4508 71.8999 11.1509 72.0498 10.7974ZM79.0727 2.66856H82.9928V2.97402H82.7778C82.7128 2.97402 82.6223 2.99104 82.5091 3.02499C82.396 3.0561 82.2772 3.10415 82.1499 3.16352C82.0227 3.22581 81.8925 3.30213 81.7624 3.39545C81.6295 3.49163 81.5078 3.59627 81.3976 3.71224C81.2816 3.8339 81.1572 3.98944 81.0214 4.18464C80.8856 4.37692 80.7329 4.60607 80.5603 4.87188L77.8508 9.13993V11.957C77.8508 12.6471 77.9271 13.077 78.0827 13.2496C78.2892 13.4815 78.6201 13.5975 79.0811 13.5975H79.446V13.903H74.6603V13.5975H75.0592C75.5343 13.5975 75.8737 13.4533 76.0717 13.1676C76.1933 12.995 76.2556 12.5906 76.2556 11.957V9.29548L73.1754 4.58905C72.9945 4.30908 72.8417 4.08277 72.7173 3.91591C72.5928 3.74619 72.4966 3.62461 72.4316 3.55384C72.3976 3.51996 72.3439 3.47184 72.2647 3.40962C72.1883 3.34455 72.0921 3.27949 71.9762 3.2145C71.8602 3.14658 71.7302 3.08999 71.5916 3.04478C71.4501 2.99666 71.303 2.97402 71.1475 2.97402V2.66856H75.9501V2.97402H75.7012C75.5796 2.97402 75.458 2.98819 75.3335 3.01645C75.209 3.04194 75.0988 3.08721 74.9997 3.14943C74.9008 3.2088 74.8187 3.28518 74.7565 3.37566C74.6914 3.46621 74.6603 3.57648 74.6603 3.70377C74.6603 3.90174 74.83 4.26095 75.1666 4.7814L77.5085 8.40172L79.7119 4.93695C80.0427 4.41934 80.2097 4.03187 80.2097 3.7773C80.1984 3.66134 80.1729 3.55384 80.1361 3.4549C80.0965 3.35587 80.0343 3.26824 79.9523 3.19748C79.8703 3.12679 79.7571 3.0702 79.6128 3.03346C79.4686 2.99389 79.2876 2.97402 79.0727 2.97402V2.66856ZM90.1656 13.903L85.8297 4.45045V11.957C85.8297 12.6471 85.9033 13.077 86.0531 13.2496C86.2596 13.4815 86.582 13.5975 87.0261 13.5975H87.4249V13.903H83.5047V13.5975H83.9035C84.3787 13.5975 84.7181 13.4533 84.9161 13.1676C85.0378 12.995 85.1 12.5906 85.1 11.957V4.61454C85.1 4.12804 85.0434 3.76883 84.9331 3.5369C84.8963 3.4549 84.8426 3.37851 84.7747 3.31067C84.7097 3.23991 84.6191 3.18054 84.506 3.13241C84.3929 3.08152 84.2543 3.04194 84.0959 3.01645C83.9346 2.98819 83.7367 2.97402 83.5047 2.97402V2.66856H86.6924L90.7596 11.4592L94.7731 2.66856H97.9635V2.97402H97.5732C97.0923 2.97402 96.7501 3.11832 96.5521 3.404C96.4305 3.57648 96.3683 3.97812 96.3683 4.61454V11.957C96.3683 12.6471 96.4446 13.077 96.6002 13.2496C96.8066 13.4815 97.1291 13.5975 97.5732 13.5975H97.9635V13.903H93.1778V13.5975H93.5766C94.0518 13.5975 94.3912 13.4533 94.5892 13.1676C94.7108 12.995 94.7731 12.5934 94.7731 11.957V4.45045L90.4371 13.903H90.1656ZM106.16 8.16132C106.618 8.26034 107.009 8.3961 107.331 8.56858C107.654 8.74114 107.917 8.94196 108.12 9.17389C108.324 9.40582 108.474 9.66316 108.567 9.94037C108.661 10.2204 108.709 10.5146 108.709 10.8257C108.709 11.1029 108.663 11.3772 108.573 11.6516C108.479 11.9231 108.349 12.1805 108.177 12.4209C108.007 12.6613 107.798 12.8819 107.552 13.077C107.306 13.2751 107.029 13.4335 106.72 13.5551C106.106 13.787 105.165 13.903 103.9 13.903H98.5942V13.5975H99.0185C99.4824 13.5975 99.8218 13.4476 100.031 13.1506C100.158 12.9554 100.223 12.5453 100.223 11.9146V4.65697C100.223 3.9668 100.144 3.52558 99.983 3.33893C99.7652 3.09568 99.4456 2.97402 99.0185 2.97402H98.5942V2.66856H103.451C104.356 2.66856 105.083 2.73362 105.631 2.8666C106.044 2.96555 106.409 3.107 106.729 3.28803C107.045 3.47184 107.311 3.68398 107.529 3.92722C107.744 4.16762 107.905 4.43636 108.016 4.73328C108.126 5.0275 108.182 5.33859 108.182 5.66385C108.182 6.22673 108.013 6.73016 107.671 7.17423C107.331 7.6183 106.828 7.94633 106.16 8.16132ZM101.819 7.71163C102.237 7.78794 102.758 7.82759 103.383 7.82759C104.192 7.82759 104.797 7.74274 105.193 7.57303C105.399 7.48247 105.578 7.37221 105.736 7.2336C105.894 7.095 106.024 6.9423 106.129 6.76974C106.234 6.60003 106.313 6.41623 106.369 6.21826C106.423 6.02021 106.451 5.81377 106.451 5.59878C106.451 5.27922 106.384 4.97375 106.248 4.68523C106.115 4.3967 105.914 4.14499 105.648 3.93007C105.385 3.71508 105.057 3.54537 104.664 3.41809C104.274 3.29081 103.821 3.22859 103.309 3.22859C102.746 3.22859 102.248 3.28803 101.819 3.40962V7.71163ZM101.819 13.0856C102.455 13.2354 103.086 13.309 103.716 13.309C104.22 13.309 104.661 13.2496 105.046 13.128C105.43 13.0063 105.753 12.8395 106.013 12.6245C106.271 12.4124 106.466 12.1635 106.596 11.8807C106.726 11.595 106.791 11.2895 106.791 10.9643C106.791 10.605 106.72 10.2685 106.579 9.95738C106.437 9.64622 106.222 9.37471 105.934 9.14563C105.643 8.91648 105.278 8.73552 104.839 8.60254C104.401 8.46963 103.883 8.40457 103.287 8.40457C102.939 8.40457 102.645 8.41019 102.404 8.42151C102.164 8.43283 101.969 8.45262 101.819 8.4781V13.0856ZM113.189 3.27949V7.70878H115.664C116.023 7.70878 116.314 7.67767 116.537 7.61261C116.764 7.55039 116.939 7.45136 117.066 7.31561C117.194 7.17986 117.281 7.01014 117.332 6.80655C117.38 6.60288 117.414 6.35963 117.431 6.07965H117.737V9.9828H117.431C117.392 9.70844 117.355 9.48498 117.315 9.31249C117.276 9.13993 117.236 9.01265 117.199 8.93626C117.148 8.83732 117.086 8.75246 117.007 8.67892C116.931 8.60254 116.832 8.54032 116.71 8.48373C116.588 8.43005 116.441 8.38763 116.269 8.36214C116.096 8.33388 115.895 8.31971 115.664 8.31971H113.189V12.0306C113.189 12.5227 113.211 12.8282 113.254 12.9441C113.276 12.9922 113.305 13.0403 113.339 13.0856C113.37 13.128 113.421 13.1647 113.483 13.1958C113.545 13.227 113.63 13.2496 113.732 13.2665C113.834 13.2836 113.964 13.292 114.116 13.292H116.023C116.351 13.292 116.622 13.2836 116.84 13.2638C117.058 13.244 117.25 13.21 117.411 13.1647C117.576 13.1167 117.72 13.0488 117.844 12.9639C117.969 12.8791 118.099 12.7688 118.237 12.6358C118.407 12.4718 118.582 12.2568 118.761 11.9995C118.936 11.7392 119.114 11.4337 119.29 11.0858H119.62L118.653 13.903H109.981V13.5975H110.38C110.485 13.5975 110.595 13.5862 110.714 13.5635C110.83 13.5409 110.937 13.507 111.042 13.456C111.144 13.408 111.237 13.3458 111.319 13.2694C111.401 13.1958 111.461 13.1081 111.494 13.0092C111.56 12.8366 111.594 12.4746 111.594 11.9231V4.62301C111.594 3.91591 111.523 3.47753 111.379 3.30497C111.178 3.08436 110.847 2.97402 110.38 2.97402H109.981V2.66856H118.653V5.1293H118.45C118.39 4.82945 118.328 4.58343 118.268 4.39108C118.206 4.19873 118.138 4.03757 118.059 3.91028C117.983 3.783 117.895 3.68113 117.796 3.60759C117.694 3.53128 117.576 3.46337 117.44 3.404C117.213 3.32191 116.823 3.27949 116.272 3.27949H113.189ZM125.076 7.66635L129.203 11.7902C129.879 12.469 130.459 12.9328 130.937 13.1817C131.429 13.4249 131.915 13.5635 132.396 13.5975V13.903H127.051V13.5975C127.37 13.5975 127.599 13.5437 127.741 13.4362C127.879 13.3288 127.95 13.2072 127.95 13.0743C127.95 13.0092 127.947 12.9497 127.942 12.8961C127.936 12.8451 127.916 12.7886 127.879 12.7264C127.843 12.6669 127.786 12.5878 127.707 12.4944C127.628 12.4011 127.509 12.2794 127.356 12.1295L123.487 8.2886V11.9146C123.487 12.1777 123.493 12.3954 123.504 12.5595C123.515 12.7264 123.535 12.8621 123.566 12.9668C123.597 13.0714 123.642 13.1563 123.702 13.2213C123.764 13.2836 123.843 13.3429 123.945 13.3995C124.183 13.5324 124.434 13.5975 124.7 13.5975H125.082V13.903H120.279V13.5975H120.678C121.151 13.5975 121.487 13.4617 121.694 13.1902C121.827 13.0205 121.892 12.5934 121.892 11.9146V4.65697C121.892 4.4024 121.889 4.19311 121.88 4.02625C121.872 3.85931 121.849 3.72356 121.818 3.61614C121.784 3.50864 121.739 3.42094 121.68 3.35587C121.623 3.28803 121.544 3.22859 121.442 3.17207C121.199 3.03909 120.944 2.97402 120.678 2.97402H120.279V2.66856H125.082V2.97402H124.7C124.596 2.97402 124.485 2.98534 124.372 3.00798C124.259 3.03062 124.152 3.06457 124.047 3.10985C123.945 3.1579 123.852 3.21727 123.77 3.29365C123.685 3.36719 123.625 3.45774 123.586 3.56239C123.521 3.73772 123.487 4.10256 123.487 4.65412V8.09063C123.702 7.91245 123.948 7.69746 124.222 7.44289C124.499 7.18833 124.782 6.92251 125.071 6.63969C125.362 6.35963 125.648 6.0768 125.931 5.79683C126.216 5.51392 126.474 5.25373 126.706 5.01333C126.937 4.77571 127.133 4.56642 127.288 4.38823C127.447 4.2129 127.546 4.09409 127.591 4.03472C127.741 3.81411 127.814 3.61891 127.814 3.4549C127.814 3.32761 127.758 3.2145 127.645 3.11832C127.531 3.02215 127.333 2.97402 127.053 2.97402H126.796V2.66856H130.92V2.97402C130.677 2.98534 130.456 3.0193 130.258 3.07304C130.159 3.107 130.049 3.14943 129.927 3.20595C129.805 3.2597 129.67 3.33608 129.525 3.42941C129.378 3.52274 129.217 3.6387 129.045 3.77168C128.869 3.90743 128.677 4.07145 128.468 4.2638L125.076 7.66635ZM138.463 2.41406C139.914 2.41406 141.176 2.9684 142.248 4.07999C143.32 5.18305 143.854 6.5633 143.854 8.22069C143.854 9.92627 143.317 11.3404 142.239 12.469C141.164 13.5946 139.86 14.1575 138.33 14.1575C136.78 14.1575 135.479 13.6088 134.43 12.5085C133.381 11.4112 132.857 9.98849 132.857 8.24333C132.857 6.46143 133.465 5.00486 134.679 3.87917C135.734 2.90333 136.995 2.41406 138.463 2.41406ZM138.305 3.02499C137.739 3.02499 137.233 3.14658 136.792 3.38983C136.35 3.63023 135.98 3.97812 135.68 4.42781C135.38 4.87758 135.151 5.4206 134.993 6.05986C134.837 6.7019 134.758 7.41748 134.758 8.21222C134.758 9.00133 134.834 9.72261 134.99 10.3788C135.143 11.0349 135.372 11.5978 135.672 12.0702C135.971 12.5425 136.342 12.9074 136.783 13.1704C137.224 13.4335 137.736 13.5635 138.313 13.5635C138.834 13.5635 139.315 13.4646 139.759 13.2665C140.203 13.0686 140.587 12.7602 140.913 12.3445C141.238 11.9259 141.492 11.397 141.676 10.7521C141.86 10.1045 141.953 9.33513 141.953 8.44415C141.953 7.58719 141.877 6.82634 141.727 6.15596C141.574 5.48566 141.345 4.92001 141.04 4.45615C140.734 3.99229 140.353 3.6387 139.897 3.39268C139.445 3.14658 138.913 3.02499 138.305 3.02499ZM156.568 2.66856V2.97402C156.33 3.0193 156.127 3.08151 155.957 3.16352C155.79 3.24838 155.64 3.35587 155.513 3.48885C155.385 3.61891 155.275 3.78015 155.176 3.96403C155.08 4.14783 154.984 4.35997 154.882 4.59753L150.965 14.1575H150.656L146.453 4.47309C146.233 3.96403 146.08 3.66134 145.998 3.56239C145.859 3.38983 145.69 3.25692 145.492 3.16075C145.294 3.06457 145.019 3.00236 144.672 2.97402V2.66856H149.254V2.97402C148.991 3.00236 148.776 3.03631 148.614 3.08151C148.45 3.12679 148.326 3.18054 148.238 3.24276C148.15 3.30782 148.091 3.37851 148.06 3.45774C148.029 3.53975 148.015 3.63023 148.015 3.72925C148.015 4.00923 148.142 4.44198 148.397 5.0218L151.253 11.6119L153.903 5.10381C154.164 4.459 154.294 4.01208 154.294 3.76883C154.294 3.59912 154.203 3.43788 154.025 3.28518C153.847 3.13241 153.541 3.03062 153.106 2.97402V2.66856H156.568Z" fill="#5798FF"/>
<path d="M48.6186 21.182V20.8766H52.5896V21.182H52.1682C51.7269 21.182 51.3876 21.3659 51.1499 21.7364C51.034 21.9146 50.9774 22.3134 50.9774 22.93V27.4922C50.9774 28.6122 50.8643 29.4891 50.638 30.1198C50.4938 30.5214 50.2901 30.8665 50.0271 31.1521C49.7612 31.435 49.4557 31.6697 49.1078 31.8508C48.76 32.0346 48.3781 32.1676 47.9595 32.2552C47.5438 32.34 47.111 32.3825 46.6585 32.3825C45.4394 32.3825 44.5089 32.1703 43.8696 31.7433C43.4652 31.4802 43.1541 31.1974 42.9363 30.9033C42.7185 30.6063 42.5602 30.281 42.4583 29.9247C42.3565 29.5682 42.2971 29.1723 42.2801 28.7395C42.2632 28.3039 42.2547 27.8118 42.2547 27.2602V22.865C42.2547 22.5171 42.2321 22.2314 42.1839 22.0108C42.1387 21.7902 42.0652 21.6176 41.9662 21.496C41.8671 21.3744 41.7399 21.2924 41.59 21.2471C41.4372 21.2047 41.2562 21.182 41.0469 21.182H40.6255V20.8766H45.4791V21.182H45.0491C44.7833 21.182 44.5711 21.2188 44.4127 21.2952C44.2515 21.3688 44.1299 21.479 44.0478 21.6205C43.9658 21.7647 43.9121 21.9429 43.8867 22.1522C43.8612 22.3615 43.8499 22.5991 43.8499 22.865V27.7638C43.8499 28.0409 43.8583 28.3152 43.8753 28.5868C43.8923 28.8555 43.9234 29.1185 43.9743 29.3702C44.0224 29.6192 44.0903 29.8596 44.1751 30.083C44.2628 30.3064 44.3732 30.5129 44.5117 30.6996C44.7267 30.9994 45.0152 31.2341 45.3744 31.4096C45.7364 31.582 46.1974 31.6697 46.7603 31.6697C47.1224 31.6697 47.4702 31.6273 47.804 31.5425C48.1377 31.4548 48.4432 31.336 48.7232 31.1861C49.0003 31.0333 49.2408 30.8523 49.4444 30.6458C49.6481 30.4394 49.8036 30.2103 49.9083 29.9614C50.1233 29.4579 50.2308 28.6094 50.2308 27.4159V22.865C50.2308 22.1579 50.1544 21.7194 49.9988 21.5469C49.7838 21.3037 49.4642 21.182 49.04 21.182H48.6186ZM54.1283 20.8766H57.166L64.0389 29.3109V22.8253C64.0389 22.1324 63.9626 21.7025 63.807 21.5299C63.5949 21.298 63.2725 21.182 62.8341 21.182H62.4438V20.8766H66.3639V21.182H65.9651C65.4899 21.182 65.1505 21.3263 64.9525 21.612C64.8309 21.7845 64.7687 22.189 64.7687 22.8225V32.2976H64.4632L57.0641 23.2524V30.1651C57.0641 30.8551 57.1377 31.2879 57.2876 31.4576C57.494 31.6895 57.8165 31.8055 58.2606 31.8055H58.6594V32.111H54.7392V31.8055H55.1295C55.6103 31.8055 55.9526 31.6613 56.1506 31.3756C56.2722 31.203 56.3345 30.7986 56.3345 30.1651V22.3502C56.1704 22.1579 56.0318 22.0023 55.9215 21.8864C55.8112 21.7704 55.7065 21.6742 55.6076 21.6007C55.5085 21.5271 55.401 21.4649 55.2851 21.4168C55.1691 21.3715 55.0249 21.3179 54.8552 21.2556C54.6968 21.2075 54.4535 21.182 54.1283 21.182V20.8766ZM73.4179 31.8055V32.111H68.5984V31.8055H68.9972C69.4695 31.8055 69.8061 31.6697 70.0125 31.3982C70.1455 31.2285 70.2106 30.8014 70.2106 30.1226V22.865C70.2106 22.5991 70.2049 22.3841 70.1935 22.2172C70.1822 22.0532 70.1624 21.9146 70.1313 21.8071C70.1002 21.6996 70.0578 21.6148 69.9984 21.5554C69.9418 21.4932 69.8627 21.4366 69.7608 21.3801C69.5175 21.2471 69.263 21.182 68.9972 21.182H68.5984V20.8766H73.4179V21.182H73.0135C72.5496 21.182 72.2158 21.3179 72.0122 21.5894C71.8736 21.7591 71.8057 22.1833 71.8057 22.865V30.1226C71.8057 30.3885 71.8114 30.6034 71.8227 30.7703C71.8341 30.9344 71.8539 31.0701 71.885 31.1748C71.9161 31.2794 71.9613 31.3643 72.0207 31.4293C72.0801 31.4916 72.1621 31.5509 72.2611 31.6075C72.4987 31.7404 72.7476 31.8055 73.0135 31.8055H73.4179ZM87.4439 20.8766V21.182C87.2064 21.2273 87.0027 21.2895 86.833 21.3715C86.6661 21.4564 86.5162 21.5639 86.3889 21.6969C86.2617 21.8269 86.1514 21.9882 86.0524 22.172C85.9562 22.3558 85.8601 22.568 85.7582 22.8055L81.8409 32.3655H81.5326L77.3296 22.6811C77.109 22.172 76.9563 21.8693 76.8743 21.7704C76.7357 21.5978 76.566 21.4649 76.368 21.3688C76.17 21.2726 75.8956 21.2104 75.5478 21.182V20.8766H80.1298V21.182C79.8667 21.2104 79.6517 21.2443 79.4905 21.2895C79.3265 21.3348 79.202 21.3885 79.1143 21.4508C79.0266 21.5158 78.9673 21.5865 78.9362 21.6658C78.905 21.7478 78.8909 21.8382 78.8909 21.9373C78.8909 22.2172 79.0182 22.65 79.2727 23.2298L82.1294 29.8199L84.7796 23.3118C85.0398 22.667 85.1699 22.2201 85.1699 21.9768C85.1699 21.8071 85.0794 21.6459 84.9013 21.4932C84.723 21.3404 84.4175 21.2386 83.982 21.182V20.8766H87.4439ZM92.767 21.4875V25.9168H95.2418C95.601 25.9168 95.8924 25.8857 96.1158 25.8206C96.3421 25.7584 96.5174 25.6594 96.6447 25.5236C96.772 25.3879 96.8597 25.2182 96.9106 25.0146C96.9587 24.8109 96.9926 24.5676 97.0096 24.2877H97.3151V28.1908H97.0096C96.97 27.9164 96.9332 27.693 96.8937 27.5205C96.854 27.3479 96.8144 27.2207 96.7777 27.1443C96.7267 27.0453 96.6645 26.9605 96.5853 26.8869C96.509 26.8105 96.4099 26.7483 96.2883 26.6917C96.1668 26.6381 96.0197 26.5956 95.8471 26.5701C95.6746 26.5419 95.4738 26.5277 95.2418 26.5277H92.767V30.2386C92.767 30.7307 92.7896 31.0362 92.832 31.1521C92.8547 31.2002 92.8829 31.2483 92.9169 31.2936C92.948 31.336 92.9989 31.3727 93.0611 31.4039C93.1233 31.435 93.2082 31.4576 93.3101 31.4745C93.4119 31.4916 93.542 31.5 93.6947 31.5H95.601C95.9291 31.5 96.2006 31.4916 96.4185 31.4718C96.6362 31.452 96.8286 31.418 96.9898 31.3727C97.1539 31.3247 97.2981 31.2568 97.4225 31.1719C97.547 31.0871 97.6771 30.9768 97.8157 30.8438C97.9854 30.6798 98.1607 30.4648 98.3389 30.2075C98.5143 29.9472 98.6925 29.6417 98.8678 29.2939H99.1988L98.2315 32.111H89.5596V31.8055H89.9584C90.0631 31.8055 90.1734 31.7942 90.2922 31.7715C90.4081 31.7489 90.5156 31.715 90.6203 31.664C90.722 31.616 90.8155 31.5538 90.8975 31.4774C90.9795 31.4039 91.0388 31.3161 91.0728 31.2172C91.1379 31.0446 91.1718 30.6827 91.1718 30.1311V22.831C91.1718 22.1239 91.1011 21.6855 90.9568 21.513C90.756 21.2924 90.4251 21.182 89.9584 21.182H89.5596V20.8766H98.2315V23.3373H98.0278C97.9685 23.0375 97.9062 22.7914 97.8468 22.5991C97.7846 22.4067 97.7167 22.2456 97.6375 22.1183C97.5611 21.991 97.4735 21.8891 97.3745 21.8156C97.2727 21.7393 97.1539 21.6714 97.0181 21.612C96.7918 21.5299 96.4015 21.4875 95.85 21.4875H92.767ZM112.628 32.111H109.624L105.814 26.8501C105.67 26.8558 105.54 26.8614 105.427 26.8643C105.314 26.8671 105.212 26.8671 105.124 26.8671C105.054 26.8671 104.974 26.8671 104.892 26.8643C104.81 26.8614 104.723 26.8558 104.635 26.8501V30.1198C104.635 30.8297 104.711 31.2681 104.867 31.4407C105.076 31.6839 105.39 31.8055 105.809 31.8055H106.247V32.111H101.445V31.8055H101.866C102.335 31.8055 102.675 31.65 102.884 31.3416C103 31.1691 103.057 30.7647 103.057 30.1226V22.865C103.057 22.1579 102.98 21.7166 102.825 21.5469C102.61 21.3037 102.29 21.182 101.866 21.182H101.445V20.8766H105.54C106.725 20.8766 107.602 20.9643 108.179 21.1424C108.459 21.2245 108.725 21.349 108.971 21.513C109.217 21.6798 109.432 21.875 109.616 22.1013C109.802 22.3276 109.949 22.5821 110.057 22.8621C110.164 23.145 110.218 23.4448 110.218 23.7644C110.218 24.1123 110.162 24.4375 110.051 24.7374C109.941 25.0372 109.771 25.3115 109.539 25.5604C109.31 25.8093 109.022 26.0243 108.671 26.2053C108.323 26.3891 107.913 26.5333 107.441 26.6381L109.766 29.8652C110.303 30.6119 110.758 31.1041 111.135 31.3416C111.522 31.5849 112.02 31.7404 112.628 31.8055V32.111ZM104.635 26.3326C104.74 26.3326 104.833 26.3354 104.909 26.3382C104.986 26.3411 105.051 26.3411 105.102 26.3411C105.639 26.3411 106.111 26.2788 106.519 26.1543C106.926 26.0299 107.265 25.8574 107.537 25.6368C107.808 25.4162 108.012 25.1559 108.148 24.8533C108.284 24.5535 108.351 24.2254 108.351 23.8719C108.351 23.524 108.292 23.2072 108.176 22.9159C108.06 22.6274 107.896 22.3756 107.681 22.1663C107.469 21.9571 107.214 21.793 106.917 21.677C106.62 21.5611 106.295 21.5045 105.942 21.5045C105.78 21.5045 105.591 21.5158 105.376 21.5412C105.158 21.5667 104.912 21.6063 104.635 21.6629V26.3326ZM121.817 20.6221V24.5083H121.512C121.413 23.7616 121.235 23.1676 120.974 22.7264C120.85 22.5058 120.692 22.3049 120.502 22.1296C120.313 21.9514 120.106 21.8015 119.883 21.677C119.659 21.5526 119.425 21.4564 119.173 21.3885C118.924 21.3179 118.672 21.2839 118.418 21.2839C118.138 21.2839 117.877 21.332 117.634 21.4281C117.391 21.5243 117.182 21.6544 117.003 21.8128C116.825 21.974 116.687 22.1579 116.588 22.3643C116.489 22.5708 116.438 22.7857 116.438 23.0064C116.438 23.3147 116.508 23.5862 116.653 23.8153C116.794 24.0444 116.992 24.2537 117.244 24.4488C117.493 24.6412 117.787 24.8278 118.126 25.0117C118.466 25.1927 118.833 25.3907 119.229 25.6C119.673 25.8376 120.098 26.0696 120.499 26.2958C120.901 26.5221 121.255 26.771 121.56 27.0453C121.865 27.3168 122.109 27.6308 122.293 27.9815C122.474 28.3323 122.564 28.7508 122.564 29.243C122.564 29.6616 122.476 30.0632 122.304 30.4394C122.129 30.8184 121.888 31.1493 121.574 31.435C121.263 31.7178 120.89 31.9441 120.457 32.1138C120.024 32.2807 119.549 32.3655 119.031 32.3655C118.836 32.3655 118.672 32.3627 118.534 32.3571C118.395 32.3514 118.262 32.34 118.138 32.3203C118.01 32.3005 117.877 32.2694 117.745 32.2298C117.609 32.1873 117.448 32.1307 117.258 32.0601C117.128 32.0092 116.992 31.9639 116.854 31.9243C116.715 31.8819 116.588 31.8479 116.475 31.8197C116.359 31.7913 116.26 31.7715 116.18 31.7546C116.098 31.7376 116.047 31.7291 116.028 31.7291C115.889 31.7291 115.779 31.7715 115.7 31.8535C115.62 31.9356 115.561 32.1053 115.521 32.3655H115.216V28.5133H115.521C115.592 28.9177 115.677 29.2684 115.773 29.5711C115.869 29.8709 115.98 30.1226 116.101 30.3291C116.223 30.527 116.378 30.7109 116.571 30.8835C116.766 31.056 116.981 31.203 117.221 31.3275C117.462 31.452 117.719 31.5481 117.999 31.616C118.276 31.6867 118.562 31.7206 118.853 31.7206C119.201 31.7206 119.512 31.6697 119.789 31.5707C120.064 31.4718 120.298 31.3388 120.491 31.1691C120.686 31.0022 120.833 30.8042 120.935 30.5808C121.037 30.3573 121.088 30.1254 121.088 29.8822C121.088 29.523 121.014 29.2203 120.864 28.9743C120.717 28.7282 120.516 28.5104 120.265 28.3152C120.016 28.123 119.724 27.9391 119.391 27.7609C119.057 27.5856 118.706 27.3847 118.336 27.1641C117.917 26.9152 117.515 26.6805 117.125 26.457C116.738 26.2336 116.395 25.9875 116.098 25.7188C115.799 25.4529 115.561 25.1475 115.383 24.8053C115.205 24.463 115.114 24.0529 115.114 23.5777C115.114 23.1818 115.196 22.8028 115.363 22.4435C115.527 22.0843 115.756 21.7704 116.047 21.4988C116.342 21.2302 116.687 21.0152 117.085 20.8568C117.484 20.7012 117.923 20.6221 118.395 20.6221C118.98 20.6221 119.611 20.7691 120.287 21.0604C120.587 21.199 120.805 21.2669 120.941 21.2669C121.085 21.2669 121.201 21.2245 121.294 21.1397C121.385 21.0548 121.458 20.8823 121.512 20.6221H121.817ZM130.297 31.8055V32.111H125.477V31.8055H125.876C126.348 31.8055 126.685 31.6697 126.891 31.3982C127.024 31.2285 127.09 30.8014 127.09 30.1226V22.865C127.09 22.5991 127.084 22.3841 127.072 22.2172C127.061 22.0532 127.041 21.9146 127.01 21.8071C126.979 21.6996 126.937 21.6148 126.877 21.5554C126.821 21.4932 126.742 21.4366 126.64 21.3801C126.396 21.2471 126.142 21.182 125.876 21.182H125.477V20.8766H130.297V21.182H129.892C129.429 21.182 129.095 21.3179 128.891 21.5894C128.753 21.7591 128.685 22.1833 128.685 22.865V30.1226C128.685 30.3885 128.69 30.6034 128.702 30.7703C128.713 30.9344 128.733 31.0701 128.764 31.1748C128.795 31.2794 128.84 31.3643 128.9 31.4293C128.959 31.4916 129.041 31.5509 129.14 31.6075C129.378 31.7404 129.627 31.8055 129.892 31.8055H130.297ZM142.1 20.8766V23.507H141.913C141.868 23.1563 141.794 22.8593 141.693 22.6133C141.591 22.37 141.455 22.172 141.291 22.0221C141.124 21.8693 140.92 21.7619 140.683 21.6912C140.445 21.6233 140.168 21.5894 139.851 21.5894H138.264V30.1651C138.264 30.8551 138.338 31.2879 138.488 31.4576C138.692 31.6895 139.014 31.8055 139.455 31.8055H139.843V32.111H135.074V31.8055H135.473C135.948 31.8055 136.287 31.6613 136.485 31.3756C136.607 31.203 136.669 30.8014 136.669 30.1651V21.5894H135.32C134.981 21.5894 134.681 21.6148 134.429 21.6629C134.175 21.7138 133.96 21.8071 133.784 21.9429C133.606 22.0815 133.465 22.2767 133.354 22.5284C133.244 22.7801 133.162 23.1054 133.105 23.507H132.783V20.8766H142.1ZM152.305 20.8766H156.225V21.182H156.01C155.945 21.182 155.854 21.199 155.741 21.233C155.628 21.2641 155.509 21.3122 155.382 21.3715C155.255 21.4338 155.125 21.5101 154.994 21.6035C154.862 21.6996 154.74 21.8043 154.63 21.9202C154.514 22.0419 154.389 22.1974 154.253 22.3926C154.118 22.5849 153.965 22.8141 153.792 23.0799L151.083 27.3479V30.1651C151.083 30.8551 151.159 31.285 151.315 31.4576C151.521 31.6895 151.852 31.8055 152.313 31.8055H152.678V32.111H147.892V31.8055H148.291C148.766 31.8055 149.106 31.6613 149.304 31.3756C149.425 31.203 149.488 30.7986 149.488 30.1651V27.5035L146.407 22.7971C146.226 22.5171 146.074 22.2908 145.949 22.1239C145.825 21.9542 145.729 21.8326 145.664 21.7619C145.63 21.728 145.576 21.6798 145.497 21.6176C145.42 21.5526 145.324 21.4875 145.208 21.4225C145.092 21.3546 144.962 21.298 144.824 21.2528C144.682 21.2047 144.535 21.182 144.379 21.182V20.8766H149.182V21.182H148.933C148.812 21.182 148.69 21.1962 148.566 21.2245C148.441 21.2499 148.331 21.2952 148.232 21.3574C148.133 21.4168 148.051 21.4932 147.988 21.5837C147.923 21.6742 147.892 21.7845 147.892 21.9118C147.892 22.1097 148.062 22.469 148.399 22.9894L150.741 26.6097L152.944 23.145C153.275 22.6274 153.442 22.2399 153.442 21.9853C153.43 21.8693 153.405 21.7619 153.368 21.6629C153.328 21.5639 153.266 21.4763 153.184 21.4055C153.102 21.3348 152.989 21.2782 152.845 21.2415C152.701 21.2019 152.52 21.182 152.305 21.182V20.8766Z" fill="#5798FF"/>
</svg>
