<svg width="24" height="23" viewBox="0 0 24 23" fill="none" xmlns="http://www.w3.org/2000/svg">
<g clip-path="url(#clip0_459_466)">
<path d="M17.7181 15.9835L21.7655 20.0299L20.4283 21.367L16.382 17.3197C14.8764 18.5266 13.0037 19.1831 11.0741 19.1804C6.37945 19.1804 2.56934 15.3702 2.56934 10.6756C2.56934 5.98102 6.37945 2.1709 11.0741 2.1709C15.7687 2.1709 19.5788 5.98102 19.5788 10.6756C19.5815 12.6053 18.9251 14.4779 17.7181 15.9835ZM15.8225 15.2824C17.0218 14.0491 17.6916 12.3959 17.6889 10.6756C17.6889 7.02048 14.7283 4.06084 11.0741 4.06084C7.41892 4.06084 4.45928 7.02048 4.45928 10.6756C4.45928 14.3298 7.41892 17.2904 11.0741 17.2904C12.7943 17.2931 14.4475 16.6234 15.6808 15.4241L15.8225 15.2824Z" fill="white"/>
</g>
<defs>
<clipPath id="clip0_459_466">
<rect width="22.6793" height="22.6793" fill="white" transform="translate(0.680664 0.282227)"/>
</clipPath>
</defs>
</svg>
