<svg width="192" height="43" viewBox="0 0 192 43" fill="none" xmlns="http://www.w3.org/2000/svg">
<path fill-rule="evenodd" clip-rule="evenodd" d="M21.272 0.821289C32.8823 0.821289 42.2944 10.1145 42.2944 21.578C42.2944 33.0414 32.8823 42.3346 21.272 42.3346C9.66155 42.3346 0.249512 33.0414 0.249512 21.578C0.249512 10.1145 9.66155 0.821289 21.272 0.821289ZM21.272 3.80293C31.2145 3.80293 39.2745 11.7611 39.2745 21.578C39.2745 31.3947 31.2145 39.3529 21.272 39.3529C11.3293 39.3529 3.26925 31.3947 3.26925 21.578C3.26925 11.7611 11.3293 3.80293 21.272 3.80293Z" fill="white"/>
<path fill-rule="evenodd" clip-rule="evenodd" d="M12.1028 12.5244C15.8969 8.77826 21.457 7.83897 26.1369 9.70596L22.8893 12.9125L21.5145 14.2699L21.5142 14.2702L27.2986 19.9815L24.8521 22.397L19.0681 16.6861L19.0555 16.6986L19.0551 16.6982L13.4136 22.2684L13.4013 22.2562L12.0262 23.614L16.3407 27.874L17.7159 26.5162L17.7042 26.5048L19.2145 25.0136L20.725 26.5052L14.596 32.5567C13.7075 32.029 12.869 31.3878 12.1028 30.6313C7.03866 25.6312 7.03866 17.5245 12.1028 12.5244ZM23.4608 26.5003L23.4655 26.4956L19.2183 22.3021L19.2103 22.3101L19.2063 22.3062L16.3291 25.147L14.7887 23.6261L19.0677 19.4012L23.477 23.7547L24.8515 25.1119L24.8521 25.1124L30.049 19.9812L28.674 18.6234L28.6737 18.6237L24.2644 14.2702L27.9698 10.6117C28.8503 11.1368 29.6816 11.7739 30.4416 12.5243C35.5059 17.5245 35.5059 25.6312 30.4416 30.6313C26.6542 34.3708 21.1069 35.3133 16.4322 33.4591L23.4705 26.5099L23.4608 26.5003Z" fill="white"/>
<path d="M10.0513 32.2381C9.93069 32.332 9.80849 32.3988 9.68492 32.4374C9.56135 32.477 9.43971 32.4884 9.31907 32.4715C9.19843 32.4546 9.08064 32.4096 8.96643 32.3361C8.85121 32.2626 8.74213 32.1609 8.63792 32.0305C8.54031 31.9082 8.4682 31.7861 8.42141 31.6651C8.37463 31.5432 8.35582 31.4245 8.36509 31.3082C8.37435 31.1919 8.41187 31.0794 8.47783 30.9706C8.5437 30.8619 8.63902 30.7585 8.76497 30.6605L9.96481 29.7268C9.97472 29.7191 9.98656 29.715 9.99977 29.7146C10.0122 29.7142 10.0275 29.7198 10.045 29.7311C10.0625 29.7424 10.0826 29.7601 10.1058 29.7829C10.1286 29.8051 10.156 29.8362 10.1872 29.8753C10.2171 29.9128 10.2409 29.9458 10.2575 29.9729C10.2744 30.0005 10.2869 30.0234 10.2935 30.0424C10.3002 30.0613 10.302 30.0774 10.2996 30.0901C10.2965 30.1033 10.2897 30.1137 10.2798 30.1214L9.1144 31.0283C9.03578 31.0896 8.97588 31.152 8.93331 31.2158C8.8912 31.2794 8.86515 31.3439 8.85644 31.409C8.84717 31.4736 8.85258 31.5385 8.87368 31.603C8.89469 31.6673 8.92964 31.73 8.97845 31.7913C9.02808 31.8534 9.08266 31.9018 9.14092 31.9356C9.19954 31.9698 9.26082 31.9895 9.32522 31.9953C9.38971 32 9.45686 31.9911 9.52576 31.9675C9.59511 31.9434 9.66446 31.9045 9.73363 31.8507L10.922 30.9259C10.9319 30.9182 10.9437 30.9139 10.957 30.9137C10.9693 30.9132 10.9847 30.9187 11.0017 30.9296C11.0189 30.9404 11.039 30.9581 11.0626 30.9814C11.0862 31.0047 11.1132 31.0353 11.1436 31.0733C11.1739 31.1113 11.1973 31.1439 11.2139 31.1709C11.2304 31.1981 11.2428 31.2209 11.2494 31.2399C11.2562 31.2588 11.258 31.2749 11.2547 31.2866C11.2513 31.2992 11.2444 31.3097 11.2346 31.3174L10.0513 32.2381ZM12.4228 35.2093C12.4044 35.2324 12.3838 35.2497 12.3613 35.2621C12.3385 35.2736 12.3157 35.28 12.2918 35.2813C12.2689 35.2828 12.2458 35.2789 12.2225 35.27C12.1988 35.2606 12.178 35.2486 12.1587 35.2336L11.9875 35.1003C11.9517 35.0724 11.9238 35.045 11.9031 35.018C11.8833 34.991 11.8698 34.9595 11.8627 34.924C11.8551 34.8881 11.8543 34.8467 11.8595 34.7992C11.8642 34.752 11.8741 34.693 11.8887 34.6229L12.1264 33.3311C12.1413 33.2543 12.1594 33.1735 12.1798 33.0877C12.2002 33.0019 12.223 32.9205 12.2467 32.8432L12.2436 32.8409C12.19 32.9165 12.1357 32.9909 12.0803 33.0644C12.0254 33.1374 11.9669 33.2127 11.9063 33.2887L11.0921 34.3084C11.0843 34.3182 11.0743 34.3254 11.0621 34.3293C11.0502 34.3324 11.0349 34.3314 11.017 34.3265C10.9988 34.3216 10.9768 34.3112 10.9509 34.296C10.9251 34.2809 10.8938 34.259 10.8572 34.2306C10.8214 34.2027 10.7929 34.178 10.772 34.1567C10.751 34.1354 10.7361 34.1171 10.7277 34.1014C10.7182 34.0857 10.7146 34.0712 10.7161 34.0599C10.7174 34.0476 10.7222 34.0363 10.73 34.0266L12.1277 32.2759C12.1655 32.2287 12.2079 32.2041 12.2548 32.2024C12.3012 32.2002 12.345 32.2151 12.3861 32.2471L12.601 32.4143C12.6395 32.4443 12.6698 32.473 12.691 32.5003C12.7122 32.5276 12.727 32.5566 12.7359 32.5877C12.7448 32.6188 12.7478 32.6552 12.7447 32.6961C12.742 32.7365 12.7341 32.7845 12.7222 32.8384L12.5367 33.8495C12.5247 33.91 12.5124 33.9697 12.501 34.0283C12.4897 34.087 12.4778 34.1451 12.4643 34.2021C12.4515 34.2594 12.4383 34.3159 12.4257 34.371C12.413 34.427 12.3997 34.4816 12.386 34.536L12.3874 34.5371C12.4405 34.4643 12.4966 34.3889 12.5558 34.3116C12.6153 34.2339 12.673 34.1604 12.7284 34.091L13.4585 33.1767C13.4663 33.167 13.4767 33.1602 13.4896 33.1568C13.5014 33.1536 13.5175 33.1545 13.5365 33.1593C13.5561 33.1643 13.5781 33.1748 13.6035 33.1905C13.629 33.2062 13.6599 33.2286 13.6964 33.257C13.7313 33.2842 13.7596 33.3078 13.7809 33.3286C13.8023 33.3494 13.8168 33.3673 13.8248 33.3836C13.8323 33.3995 13.836 33.414 13.8345 33.4253C13.8331 33.4376 13.8288 33.4483 13.8206 33.4586L12.4228 35.2093ZM14.4946 36.4395C14.489 36.4506 14.4802 36.4594 14.4677 36.4648C14.4555 36.4698 14.4392 36.4712 14.4191 36.4685C14.3992 36.4653 14.3732 36.4582 14.3429 36.4476C14.3122 36.4366 14.274 36.4199 14.2291 36.3976C14.1852 36.3758 14.1494 36.3558 14.1216 36.3376C14.0938 36.3194 14.0726 36.3029 14.0581 36.2892C14.0439 36.2749 14.0353 36.2611 14.0321 36.2484C14.0292 36.2353 14.031 36.223 14.0367 36.2119L15.1035 34.1189C15.1091 34.1079 15.118 34.0991 15.1305 34.0936C15.1427 34.0887 15.159 34.0872 15.1802 34.0905C15.201 34.0934 15.2262 34.1008 15.257 34.1117C15.2877 34.1226 15.3253 34.139 15.3692 34.1609C15.414 34.1832 15.4505 34.2034 15.4777 34.2214C15.5043 34.239 15.526 34.2549 15.5401 34.2693C15.5543 34.2837 15.5628 34.2975 15.5661 34.31C15.569 34.3232 15.5672 34.3355 15.5615 34.3466L14.4946 36.4395ZM17.4224 37.4526C17.4102 37.4717 17.3977 37.4865 17.3839 37.4963C17.37 37.5068 17.3514 37.5118 17.3271 37.5125C17.3027 37.5133 17.2709 37.5094 17.2315 37.5005C17.1927 37.4919 17.142 37.4786 17.0795 37.4614C17.0296 37.4477 16.9869 37.4359 16.9514 37.4255C16.9159 37.4151 16.8863 37.4048 16.8622 37.3955C16.838 37.3861 16.8186 37.3767 16.8045 37.3681C16.7901 37.3586 16.779 37.3488 16.7704 37.3383C16.7621 37.3286 16.7564 37.3169 16.7536 37.3051C16.7509 37.2928 16.7496 37.2783 16.7488 37.2611L16.6278 34.9447C16.6258 34.8959 16.626 34.8587 16.6308 34.8321C16.6349 34.8054 16.6461 34.7875 16.6658 34.7786C16.6846 34.7702 16.7138 34.7694 16.7517 34.7764C16.7902 34.7837 16.843 34.7968 16.9105 34.8154C16.968 34.8312 17.0123 34.8448 17.0441 34.8563C17.0759 34.8677 17.0996 34.879 17.1152 34.8894C17.1306 34.9004 17.1407 34.9135 17.1438 34.9272C17.1473 34.9417 17.1493 34.9586 17.1505 34.9792L17.2177 36.9841L17.2196 36.9846L18.3157 35.3095C18.3267 35.2901 18.3379 35.2749 18.3485 35.2643C18.3598 35.2531 18.3755 35.2466 18.3961 35.2441C18.4159 35.242 18.4435 35.2443 18.478 35.2511C18.5119 35.2577 18.5589 35.2692 18.6176 35.2853C18.6751 35.3012 18.7192 35.3154 18.7501 35.3279C18.7808 35.3405 18.8 35.3552 18.8084 35.3725C18.8157 35.3901 18.8139 35.4114 18.802 35.4359C18.7909 35.4608 18.7712 35.4919 18.7441 35.5313L17.4224 37.4526ZM21.3192 37.8913C21.3164 37.9285 21.3127 37.9591 21.3074 37.9843C21.3022 38.0088 21.296 38.0286 21.2882 38.0431C21.2805 38.0583 21.2716 38.0688 21.2612 38.0752C21.2513 38.0817 21.24 38.0841 21.2287 38.0833L19.9722 37.9888C19.9299 37.9856 19.8952 37.9706 19.868 37.9435C19.841 37.9166 19.8295 37.875 19.8339 37.8189L20.0002 35.6627C20.0045 35.6066 20.0221 35.5672 20.0531 35.5446C20.0841 35.5221 20.1207 35.5123 20.163 35.5155L21.4135 35.6095C21.4247 35.6104 21.435 35.6145 21.4437 35.6217C21.4519 35.6289 21.4589 35.6406 21.4643 35.6567C21.469 35.6734 21.4728 35.694 21.4742 35.7191C21.4754 35.7448 21.4744 35.7761 21.4714 35.8146C21.4687 35.8505 21.465 35.8804 21.4598 35.9056C21.4545 35.9301 21.4483 35.9501 21.4406 35.9645C21.4328 35.9797 21.424 35.9902 21.4148 35.9967C21.405 36.0032 21.3943 36.0057 21.383 36.0049L20.4892 35.9376L20.4428 36.5403L21.1958 36.5969C21.2078 36.5978 21.218 36.6019 21.2267 36.6096C21.2361 36.6176 21.2432 36.6287 21.2487 36.6442C21.2542 36.659 21.2572 36.6789 21.2586 36.7046C21.26 36.7297 21.2589 36.7597 21.2563 36.795C21.2534 36.8322 21.2498 36.8627 21.2445 36.8865C21.2394 36.9105 21.2333 36.9297 21.2256 36.9435C21.2178 36.958 21.209 36.9679 21.1987 36.973C21.1889 36.9788 21.1781 36.9813 21.1663 36.9804L20.4131 36.9238L20.3595 37.6204L21.2591 37.6881C21.2711 37.689 21.2813 37.693 21.2901 37.7008C21.2994 37.7088 21.3066 37.7204 21.3119 37.7366C21.3173 37.7521 21.3204 37.7727 21.3218 37.7977C21.3232 37.8234 21.3221 37.8541 21.3192 37.8913ZM24.9507 37.6816C24.9523 37.6953 24.9511 37.7074 24.947 37.7177C24.9429 37.728 24.9319 37.7372 24.9137 37.7459C24.8947 37.7541 24.8676 37.762 24.8304 37.769C24.7931 37.776 24.7427 37.7833 24.6789 37.7908C24.625 37.7971 24.5821 37.8009 24.5495 37.8021C24.517 37.8033 24.4908 37.8017 24.4715 37.7968C24.4522 37.7918 24.438 37.7848 24.4288 37.7748C24.4202 37.7646 24.4121 37.7523 24.405 37.738L24.1134 37.2131C24.0789 37.1539 24.0458 37.1012 24.0144 37.0561C23.9828 37.0105 23.949 36.9736 23.9136 36.9448C23.8781 36.9161 23.8382 36.8964 23.7949 36.8844C23.752 36.8729 23.703 36.8701 23.649 36.8766L23.4905 36.8952L23.6042 37.8363C23.6057 37.8487 23.6032 37.8608 23.5958 37.8716C23.5885 37.883 23.5757 37.893 23.5574 37.9018C23.539 37.9099 23.514 37.9181 23.4823 37.9258C23.4511 37.9333 23.4099 37.9402 23.3607 37.946C23.3119 37.9518 23.2709 37.9546 23.2375 37.9546C23.2042 37.9546 23.1779 37.9525 23.1581 37.9488C23.1383 37.9446 23.1234 37.9378 23.115 37.9288C23.1058 37.9194 23.1005 37.9082 23.099 37.8958L22.8288 35.6588C22.822 35.6031 22.8316 35.561 22.8575 35.5329C22.8835 35.505 22.9175 35.4883 22.9596 35.4834L23.6056 35.4072C23.6707 35.3996 23.7255 35.3945 23.768 35.3922C23.8104 35.3898 23.8495 35.3885 23.8849 35.3876C23.9865 35.3901 24.0796 35.4035 24.164 35.4285C24.2483 35.4528 24.3222 35.4896 24.3847 35.5382C24.4473 35.5868 24.4979 35.6467 24.5366 35.7185C24.5754 35.7905 24.6002 35.8751 24.6122 35.9732C24.6221 36.055 24.6206 36.1316 24.6077 36.2016C24.5943 36.2724 24.5706 36.3365 24.5355 36.3946C24.5012 36.4527 24.4562 36.5047 24.4003 36.5509C24.3446 36.5976 24.2792 36.6369 24.2054 36.6706C24.2449 36.6837 24.2824 36.7011 24.3183 36.7225C24.3543 36.7441 24.389 36.7716 24.4223 36.8046C24.4556 36.8374 24.4882 36.8751 24.5195 36.9189C24.5508 36.962 24.5822 37.0116 24.6135 37.0672L24.8834 37.5288C24.9084 37.5747 24.9257 37.6082 24.9344 37.6302C24.9436 37.6516 24.9491 37.6687 24.9507 37.6816ZM24.0934 36.0863C24.0836 36.0052 24.0569 35.9385 24.0126 35.8876C23.9683 35.8362 23.9025 35.8039 23.8148 35.7911C23.7883 35.7876 23.7589 35.7865 23.7255 35.7865C23.6922 35.7864 23.6465 35.7898 23.5886 35.7967L23.361 35.8235L23.4453 36.5211L23.7039 36.4906C23.7762 36.4821 23.8377 36.4663 23.8895 36.4423C23.942 36.4191 23.9838 36.3897 24.0162 36.3543C24.0488 36.3195 24.0713 36.2787 24.0838 36.2337C24.0964 36.1887 24.0998 36.1395 24.0934 36.0863ZM27.7181 36.0892C27.762 36.2126 27.7769 36.3281 27.7637 36.4373C27.7497 36.5461 27.7146 36.6449 27.6573 36.7347C27.5993 36.8242 27.5234 36.903 27.4282 36.9714C27.3331 37.0396 27.2248 37.0945 27.1036 37.1364C27.0216 37.1648 26.9436 37.1842 26.8681 37.195C26.7932 37.2056 26.7257 37.2111 26.6651 37.2106C26.6048 37.2106 26.5527 37.2065 26.509 37.1981C26.4653 37.1896 26.4331 37.1799 26.4114 37.1701C26.39 37.1595 26.3707 37.1406 26.3533 37.1133C26.3359 37.0861 26.3178 37.0451 26.2981 36.9897C26.2847 36.9519 26.2751 36.9207 26.2687 36.8945C26.2621 36.8683 26.2587 36.8466 26.2586 36.8287C26.2587 36.8113 26.2622 36.7976 26.2687 36.7877C26.2755 36.7777 26.2851 36.7709 26.2976 36.7666C26.3144 36.7607 26.3424 36.7623 26.3809 36.7718C26.4191 36.7807 26.467 36.7891 26.5243 36.7963C26.5817 36.8034 26.6483 36.8053 26.7235 36.8015C26.7983 36.7985 26.8805 36.7811 26.9699 36.7501C27.0287 36.7298 27.0788 36.7048 27.1203 36.6752C27.1621 36.6449 27.1947 36.6121 27.2181 36.5755C27.2417 36.539 27.2551 36.4997 27.2595 36.4565C27.2633 36.4136 27.2573 36.3692 27.2411 36.3236C27.2223 36.2705 27.1916 36.2298 27.1489 36.2023C27.106 36.1742 27.056 36.154 26.9979 36.141C26.9406 36.1275 26.8769 36.1183 26.8076 36.1132C26.739 36.1078 26.6674 36.1021 26.5934 36.0951C26.5194 36.0882 26.4458 36.077 26.3733 36.0605C26.3004 36.0448 26.231 36.0195 26.1659 35.9845C26.1002 35.9498 26.0406 35.9024 25.9862 35.8423C25.9321 35.7827 25.8879 35.7037 25.8533 35.6062C25.8136 35.4944 25.7998 35.3883 25.8114 35.2887C25.8233 35.1896 25.8552 35.0995 25.9066 35.0186C25.9585 34.9377 26.0274 34.8667 26.1145 34.8053C26.2014 34.744 26.2998 34.6947 26.4087 34.6571C26.4642 34.6379 26.5219 34.6226 26.5813 34.6118C26.6405 34.6004 26.6972 34.5939 26.7509 34.5913C26.805 34.5892 26.8539 34.5903 26.8983 34.595C26.9424 34.6005 26.9727 34.6067 26.9896 34.6148C27.0056 34.6224 27.0175 34.6301 27.0247 34.6365C27.0321 34.6437 27.0398 34.6535 27.048 34.6666C27.056 34.6791 27.0639 34.6957 27.0729 34.7168C27.0816 34.7374 27.0914 34.7631 27.1026 34.7946C27.1149 34.8292 27.1248 34.859 27.1314 34.8838C27.1382 34.9085 27.142 34.9293 27.1433 34.9469C27.1445 34.9638 27.1423 34.9778 27.1372 34.9871C27.1317 34.9974 27.1224 35.0047 27.1086 35.0095C27.0955 35.014 27.0712 35.0128 27.036 35.0062C27.0006 34.9997 26.9577 34.9937 26.908 34.9881C26.8579 34.9833 26.8021 34.9824 26.7401 34.9859C26.6779 34.9888 26.6139 35.0019 26.5464 35.0253C26.4938 35.0435 26.4504 35.0654 26.4156 35.092C26.3812 35.1177 26.3551 35.147 26.3366 35.1783C26.3183 35.2096 26.3077 35.243 26.3065 35.2788C26.3044 35.3149 26.31 35.3503 26.3223 35.3849C26.3408 35.4368 26.3711 35.4769 26.4132 35.5045C26.4555 35.5329 26.5064 35.5534 26.5651 35.5664C26.6235 35.5787 26.6884 35.5874 26.7588 35.5922C26.8287 35.5972 26.9011 35.6032 26.975 35.6096C27.049 35.6165 27.1231 35.6276 27.197 35.6437C27.2714 35.6595 27.3414 35.6845 27.4077 35.7191C27.4734 35.7538 27.5335 35.8003 27.5875 35.8598C27.6414 35.9189 27.6848 35.9953 27.7181 36.0892ZM29.9343 35.7001C29.9407 35.7108 29.9433 35.7229 29.9411 35.7362C29.9387 35.7491 29.9311 35.7633 29.9178 35.7785C29.9043 35.7932 29.8841 35.8109 29.8586 35.8301C29.8326 35.8497 29.7975 35.8722 29.7542 35.8972C29.7118 35.9217 29.6753 35.9405 29.6447 35.9536C29.6141 35.9667 29.5886 35.9754 29.5689 35.9799C29.5491 35.9838 29.5327 35.9834 29.5202 35.9791C29.5075 35.9745 29.498 35.9663 29.4917 35.9556L28.2941 33.9327C28.2878 33.922 28.2852 33.9099 28.2873 33.8965C28.2896 33.8838 28.2974 33.8695 28.3117 33.8536C28.3255 33.8381 28.3455 33.8212 28.3716 33.8016C28.3975 33.7821 28.4319 33.7599 28.4743 33.7354C28.5177 33.7104 28.5548 33.6913 28.5849 33.6785C28.6143 33.666 28.6395 33.6568 28.6594 33.6529C28.6794 33.6489 28.6958 33.6494 28.7082 33.6535C28.721 33.6583 28.7304 33.6665 28.7368 33.6773L29.9343 35.7001ZM31.292 31.9597C31.3169 31.9878 31.3368 32.0124 31.3521 32.0347C31.3671 32.0566 31.3775 32.0754 31.383 32.0915C31.3888 32.1081 31.3907 32.1222 31.388 32.134C31.3863 32.146 31.3803 32.1562 31.3719 32.1635L30.8984 32.571L32.2291 34.0784C32.2373 34.0878 32.2422 34.0993 32.2426 34.1127C32.2427 34.1257 32.2379 34.1412 32.2278 34.1585C32.2171 34.1755 32.2006 34.1967 32.1782 34.221C32.1559 34.2455 32.1263 34.2736 32.0893 34.3054C32.0524 34.3372 32.0201 34.3624 31.9926 34.3809C31.9649 34.3995 31.9415 34.4127 31.9231 34.4207C31.9042 34.4283 31.8881 34.4309 31.875 34.429C31.8616 34.4267 31.8507 34.4205 31.8425 34.4111L30.5118 32.9037L30.0384 33.3111C30.0289 33.3192 30.0178 33.3237 30.0055 33.3237C29.9943 33.3239 29.9805 33.3201 29.9645 33.3122C29.9496 33.3042 29.9318 33.2918 29.9118 33.2742C29.8914 33.2562 29.8696 33.2334 29.8447 33.2052C29.8196 33.1767 29.7987 33.1512 29.7834 33.1287C29.768 33.1064 29.7576 33.0867 29.7517 33.071C29.7458 33.0543 29.7443 33.0408 29.7461 33.0298C29.7484 33.0184 29.7546 33.0085 29.7641 33.0004L31.0976 31.8529C31.1061 31.8455 31.1163 31.8413 31.1286 31.8402C31.1408 31.8391 31.1543 31.8424 31.1701 31.8504C31.1855 31.8579 31.2034 31.8712 31.2237 31.8892C31.2441 31.9074 31.2668 31.9311 31.292 31.9597ZM33.8538 31.1552L34.5532 31.6886C34.5632 31.6962 34.5702 31.7065 34.5733 31.7196C34.576 31.7324 34.5742 31.7484 34.5677 31.7674C34.5608 31.7861 34.5487 31.81 34.5316 31.8383C34.5145 31.8665 34.491 31.8998 34.461 31.9382C34.4302 31.9775 34.4032 32.0089 34.3801 32.0319C34.3577 32.0543 34.3372 32.0718 34.3203 32.0837C34.3025 32.0959 34.2872 32.1015 34.2748 32.1011C34.2617 32.101 34.2498 32.097 34.2399 32.0894L33.5404 31.5559L32.0368 31.2673C31.984 31.2576 31.9444 31.2472 31.919 31.237C31.8936 31.2267 31.8803 31.2116 31.8785 31.1913C31.877 31.1719 31.8871 31.145 31.9089 31.1118C31.9305 31.0788 31.9635 31.0345 32.0068 30.9791C32.0432 30.9325 32.0731 30.8965 32.097 30.8703C32.121 30.8439 32.1416 30.8249 32.16 30.8133C32.1783 30.8016 32.1949 30.7953 32.21 30.7943C32.2251 30.7943 32.2423 30.7958 32.2626 30.7998L32.9231 30.9529C32.9868 30.9677 33.0532 30.9845 33.1214 31.0033C33.1904 31.0221 33.2611 31.0429 33.3358 31.0652L33.3382 31.0621C33.2976 31.0005 33.2595 30.9401 33.2229 30.8799C33.1862 30.8197 33.1523 30.7625 33.1201 30.7073L32.8034 30.1213C32.7908 30.1033 32.7824 30.087 32.7791 30.072C32.7748 30.0572 32.7759 30.0399 32.7817 30.0196C32.7876 30.0001 32.7998 29.9762 32.8183 29.9482C32.8365 29.9207 32.8629 29.8847 32.8969 29.8411C32.9418 29.7837 32.9782 29.7395 33.0054 29.71C33.0332 29.6798 33.057 29.6633 33.0763 29.6599C33.0967 29.6563 33.115 29.6662 33.1317 29.6888C33.1486 29.7109 33.1678 29.7453 33.1908 29.7918L33.8538 31.1552Z" fill="white"/>
<path d="M7.93254 15.2035C8.05327 15.2574 8.14822 15.3264 8.21913 15.4112C8.28922 15.4963 8.33738 15.5896 8.36362 15.6924C8.38921 15.7957 8.39453 15.9044 8.37903 16.0195C8.36334 16.1346 8.32885 16.2497 8.27592 16.3654C8.24014 16.4435 8.20042 16.5126 8.15629 16.574C8.11244 16.6349 8.06978 16.687 8.02758 16.7298C7.98593 16.773 7.94694 16.8073 7.91062 16.8327C7.87429 16.8581 7.84493 16.8744 7.82282 16.8832C7.80025 16.891 7.77301 16.8919 7.74099 16.8854C7.70907 16.8791 7.66659 16.8637 7.61238 16.8395C7.5755 16.823 7.54587 16.8083 7.5222 16.7949C7.49853 16.7815 7.48027 16.769 7.46706 16.7566C7.4544 16.7445 7.44679 16.7326 7.44404 16.7212C7.44138 16.7093 7.44303 16.6978 7.44853 16.686C7.45587 16.6698 7.47624 16.6509 7.50972 16.63C7.54275 16.6088 7.58192 16.5804 7.62678 16.5444C7.67155 16.5083 7.71888 16.4622 7.76805 16.4057C7.8175 16.3502 7.86144 16.2795 7.90052 16.1942C7.92612 16.1382 7.94245 16.0852 7.94942 16.0352C7.95603 15.9843 7.95447 15.9383 7.94392 15.8963C7.93337 15.8543 7.91383 15.8176 7.8852 15.7846C7.8564 15.7524 7.8197 15.726 7.77512 15.7061C7.7232 15.6829 7.67219 15.6767 7.62256 15.6883C7.57229 15.6995 7.52302 15.7214 7.47339 15.7537C7.42395 15.7854 7.37331 15.8246 7.32175 15.8706C7.27038 15.9159 7.21689 15.963 7.16066 16.0111C7.10442 16.0593 7.04534 16.104 6.98324 16.1444C6.9215 16.1857 6.85508 16.2179 6.78444 16.2401C6.71362 16.2632 6.63784 16.273 6.5562 16.2704C6.47519 16.2679 6.38685 16.2449 6.29144 16.2024C6.18218 16.1536 6.09485 16.0902 6.0298 16.0132C5.9654 15.9363 5.92146 15.8513 5.89761 15.7588C5.87413 15.6658 5.86963 15.5675 5.88477 15.4631C5.8999 15.3586 5.93164 15.2543 5.97917 15.1505C6.00338 15.0975 6.03219 15.0458 6.06522 14.9959C6.0976 14.9457 6.13209 14.9008 6.16723 14.8606C6.20301 14.8205 6.23759 14.7864 6.27163 14.7578C6.30612 14.7302 6.33153 14.7128 6.34914 14.7062C6.36575 14.7001 6.3796 14.6969 6.38923 14.6962C6.39969 14.6958 6.41226 14.6972 6.42749 14.7003C6.44217 14.7032 6.45987 14.709 6.48143 14.7172C6.50253 14.7252 6.52812 14.7359 6.55895 14.7497C6.5928 14.7648 6.62151 14.7783 6.64417 14.7906C6.66692 14.8029 6.6849 14.8145 6.69867 14.8257C6.71178 14.8366 6.72059 14.8477 6.72399 14.8577C6.72765 14.8688 6.72665 14.8805 6.72059 14.8936C6.7149 14.9062 6.6972 14.9226 6.66803 14.9433C6.63894 14.9641 6.60491 14.9906 6.56647 15.0222C6.52831 15.0548 6.48923 15.094 6.44905 15.1407C6.40813 15.1871 6.37355 15.2419 6.3441 15.3063C6.32116 15.3564 6.30722 15.4026 6.30273 15.4458C6.29786 15.4882 6.30126 15.5269 6.31144 15.5617C6.32171 15.5964 6.33896 15.627 6.36428 15.6527C6.38933 15.679 6.41923 15.6995 6.45299 15.7145C6.50372 15.7372 6.55409 15.7431 6.60344 15.7322C6.65344 15.7215 6.70353 15.6993 6.75352 15.6664C6.80288 15.6332 6.85407 15.5928 6.90627 15.5458C6.95801 15.4992 7.0125 15.4518 7.06809 15.4034C7.12433 15.3553 7.18359 15.31 7.24634 15.2683C7.30927 15.226 7.37588 15.1933 7.44697 15.1698C7.51779 15.1469 7.59339 15.136 7.67439 15.1385C7.75484 15.1407 7.8408 15.1625 7.93254 15.2035ZM10.621 12.3462C10.6669 12.3628 10.7022 12.3776 10.7261 12.3911C10.7498 12.4046 10.7627 12.4213 10.7651 12.4405C10.7664 12.4599 10.7576 12.4848 10.7377 12.515C10.7183 12.5448 10.6882 12.5848 10.6494 12.6336C10.6084 12.6851 10.576 12.7247 10.5519 12.7518C10.5273 12.7794 10.5071 12.7986 10.4901 12.8104C10.4736 12.8216 10.4591 12.8271 10.4459 12.8268C10.4331 12.8269 10.4181 12.8235 10.4021 12.817L9.90335 12.6371L9.31797 13.3726L9.60621 13.7951C9.61749 13.8105 9.62538 13.8249 9.62942 13.8389C9.63437 13.8527 9.63309 13.8692 9.6274 13.888C9.62162 13.9069 9.60896 13.9303 9.5897 13.9587C9.57052 13.987 9.54373 14.0228 9.50933 14.066C9.47245 14.1123 9.44227 14.147 9.41824 14.1709C9.39429 14.1947 9.37264 14.207 9.35347 14.2079C9.33329 14.2088 9.31366 14.1995 9.29476 14.1799C9.27586 14.1602 9.25393 14.1307 9.22742 14.091L7.95263 12.1303C7.93997 12.1113 7.93162 12.0932 7.92768 12.0768C7.92291 12.0607 7.92529 12.0417 7.93355 12.0199C7.94217 11.9974 7.95777 11.9703 7.98107 11.9377C8.0041 11.9057 8.0363 11.8641 8.07721 11.8127C8.12437 11.7535 8.16253 11.7066 8.19188 11.6728C8.22179 11.6385 8.24711 11.6142 8.26839 11.599C8.28958 11.584 8.30903 11.5766 8.32701 11.5763C8.34499 11.577 8.36619 11.5809 8.38995 11.5902L10.621 12.3462ZM8.45857 12.116L8.45737 12.1175L9.08147 13.041L9.51695 12.4938L8.45857 12.116ZM12.9431 10.3112C12.9668 10.3409 12.9863 10.3674 13.0001 10.39C13.0138 10.4126 13.0232 10.4328 13.029 10.4499C13.0349 10.4677 13.0365 10.4825 13.0332 10.4941C13.0302 10.5064 13.0239 10.5163 13.0139 10.5241L12.1092 11.2261C12.0759 11.252 12.0399 11.2641 12.0014 11.2623C11.963 11.2605 11.9262 11.2375 11.8909 11.1933L10.481 9.42208C10.4733 9.41239 10.469 9.4007 10.4692 9.38721C10.4699 9.37426 10.4755 9.35904 10.4865 9.34219C10.4974 9.32525 10.5154 9.3056 10.539 9.28223C10.5626 9.25895 10.5937 9.23232 10.6323 9.20234C10.6717 9.17172 10.7059 9.14781 10.7339 9.13105C10.7614 9.11475 10.785 9.10216 10.8042 9.09564C10.8235 9.08903 10.8397 9.08721 10.8526 9.08966C10.866 9.09265 10.8764 9.09953 10.8842 9.10931L12.1332 10.6784L12.7536 10.197C12.7636 10.1892 12.7749 10.1845 12.7868 10.1846C12.7991 10.1841 12.8123 10.188 12.8277 10.1968C12.8427 10.2051 12.8595 10.2188 12.8789 10.2378C12.8979 10.2564 12.919 10.2808 12.9431 10.3112ZM14.6491 8.49828L15.052 9.27498C15.0577 9.28603 15.0597 9.29826 15.0567 9.31139C15.0536 9.32408 15.0452 9.33793 15.0311 9.35233C15.0166 9.36628 14.9955 9.38286 14.9678 9.40125C14.9401 9.41963 14.9045 9.43983 14.8609 9.46193C14.816 9.48467 14.7779 9.50161 14.7473 9.51275C14.7172 9.52362 14.6912 9.53086 14.6708 9.53458C14.6495 9.53802 14.6332 9.53666 14.6221 9.53123C14.6103 9.52552 14.6012 9.51682 14.5956 9.50577L14.1926 8.72907L12.9567 7.8357C12.9131 7.80481 12.8818 7.77873 12.8632 7.7588C12.8446 7.73878 12.8391 7.71949 12.8463 7.70047C12.8533 7.68226 12.8741 7.66215 12.908 7.64132C12.9419 7.62058 12.9908 7.59431 13.0538 7.56243C13.1069 7.53562 13.1494 7.5156 13.1824 7.50183C13.2155 7.48806 13.2423 7.47964 13.264 7.47683C13.2855 7.47393 13.3033 7.4752 13.3174 7.48063C13.3311 7.48698 13.346 7.49558 13.3627 7.50772L13.8941 7.92392C13.9455 7.96414 13.9983 8.00716 14.0519 8.05291C14.1062 8.09892 14.1613 8.14747 14.2192 8.19901L14.2227 8.1972C14.2126 8.12446 14.2041 8.05372 14.197 7.98389C14.1897 7.91414 14.1837 7.84802 14.1784 7.78461L14.1447 7.12113C14.1409 7.09948 14.1404 7.08137 14.1438 7.06642C14.1464 7.05121 14.1549 7.0359 14.1688 7.01996C14.1826 7.00483 14.2038 6.98834 14.2326 6.97077C14.261 6.95356 14.3004 6.9321 14.35 6.90701C14.4154 6.87394 14.4674 6.84913 14.5048 6.83391C14.5429 6.81833 14.5715 6.81335 14.5906 6.81842C14.6105 6.82386 14.6228 6.84043 14.6281 6.86779C14.634 6.89496 14.6365 6.93409 14.6372 6.9859L14.6491 8.49828ZM20.1698 7.84032C20.172 7.85255 20.1709 7.86478 20.1655 7.87628C20.1601 7.88724 20.1485 7.89793 20.1315 7.90753C20.1143 7.91659 20.0904 7.9261 20.0605 7.93534C20.0306 7.94457 19.9917 7.95345 19.9448 7.96178C19.8986 7.96994 19.8596 7.97474 19.8283 7.97637C19.797 7.97791 19.7719 7.977 19.7525 7.97437C19.7338 7.97111 19.7193 7.96504 19.7103 7.95653C19.7007 7.94765 19.6946 7.93678 19.6923 7.92456L19.3327 5.93674L19.3288 5.93737L18.9739 8.04928C18.9717 8.06631 18.9663 8.08117 18.9566 8.09421C18.9468 8.10725 18.9334 8.1183 18.9143 8.12827C18.8958 8.13751 18.8712 8.14647 18.8415 8.15372C18.8112 8.16106 18.7741 8.1683 18.7311 8.17582C18.6874 8.18352 18.6507 8.18877 18.6194 8.19086C18.5882 8.19303 18.5618 8.19249 18.5409 8.18877C18.5201 8.18515 18.5029 8.17953 18.4894 8.17192C18.4765 8.16359 18.4664 8.15281 18.4601 8.13995L17.4114 6.27559L17.4075 6.27631L17.7672 8.26413C17.7694 8.27636 17.7682 8.28859 17.7629 8.30009C17.7575 8.31105 17.746 8.32174 17.7282 8.33152C17.7098 8.34076 17.6858 8.35027 17.6566 8.35942C17.6273 8.36857 17.5892 8.37727 17.5422 8.3856C17.4959 8.39375 17.457 8.39855 17.4257 8.40009C17.3943 8.40172 17.3686 8.40091 17.3493 8.39837C17.3299 8.39511 17.3153 8.38904 17.3063 8.38062C17.2973 8.37156 17.292 8.3606 17.2898 8.34837L16.8962 6.17251C16.8845 6.1082 16.8926 6.05621 16.9209 6.01599C16.9493 5.97568 16.992 5.95087 17.05 5.94063L17.3787 5.88266C17.4374 5.87234 17.4891 5.8679 17.5325 5.87016C17.5767 5.87243 17.616 5.88139 17.6506 5.89788C17.6846 5.91445 17.7159 5.93882 17.7427 5.97134C17.7693 6.00385 17.7957 6.04507 17.8202 6.09516L18.6163 7.45582L18.6241 7.45446L18.9132 5.90567C18.92 5.85005 18.9303 5.80241 18.9431 5.76228C18.9568 5.72261 18.9743 5.68901 18.9963 5.66183C19.0183 5.63466 19.0467 5.6131 19.0802 5.59716C19.1143 5.58122 19.1552 5.56935 19.2022 5.56102L19.5413 5.50124C19.5759 5.49508 19.606 5.49453 19.6324 5.49915C19.6588 5.50314 19.682 5.51229 19.7008 5.52696C19.7201 5.54082 19.7355 5.5593 19.7484 5.5824C19.7613 5.60531 19.7704 5.63294 19.7762 5.66455L20.1698 7.84032ZM23.9833 7.47529C23.972 7.56288 23.9493 7.6405 23.9158 7.7088C23.8824 7.77646 23.8408 7.83525 23.791 7.88434C23.7406 7.93343 23.6833 7.97374 23.6191 8.00581C23.5542 8.03796 23.4844 8.06151 23.4095 8.07845C23.3345 8.09475 23.2553 8.10399 23.1722 8.10544C23.0891 8.10752 22.9977 8.10191 22.8978 8.08941L22.236 8.00635C22.1939 8.001 22.16 7.98425 22.1342 7.9559C22.1085 7.92773 22.0993 7.88561 22.1064 7.82981L22.3827 5.68457C22.3899 5.62877 22.4095 5.59028 22.4415 5.56926C22.4736 5.54834 22.5107 5.54037 22.5528 5.54562L23.1772 5.62406C23.3297 5.64317 23.4568 5.67234 23.5593 5.71102C23.6618 5.74951 23.7457 5.79897 23.8114 5.85929C23.8777 5.91971 23.9246 5.99154 23.9526 6.07478C23.9813 6.1582 23.9884 6.25276 23.9748 6.35919C23.967 6.41888 23.9519 6.47368 23.9301 6.52431C23.9082 6.57495 23.879 6.62015 23.8447 6.65928C23.8094 6.69913 23.7684 6.73219 23.7208 6.75982C23.6738 6.78762 23.6217 6.80809 23.564 6.82132C23.6326 6.84306 23.6954 6.8734 23.7513 6.91262C23.807 6.95193 23.8536 6.99939 23.8912 7.05483C23.9294 7.11044 23.9567 7.17394 23.9737 7.24386C23.9906 7.31461 23.9941 7.3916 23.9833 7.47529ZM23.4622 6.3562C23.4686 6.30684 23.4663 6.26173 23.4563 6.22024C23.4463 6.17948 23.4275 6.14343 23.4 6.11363C23.3724 6.08383 23.3362 6.05947 23.2914 6.03927C23.2464 6.01989 23.1849 6.00485 23.1066 5.99498L22.8517 5.963L22.7694 6.60149L23.0514 6.6369C23.1243 6.64605 23.184 6.64496 23.2296 6.63292C23.2752 6.6215 23.3142 6.60266 23.3471 6.5764C23.3798 6.55022 23.4053 6.51779 23.425 6.48011C23.4439 6.44153 23.4564 6.40095 23.4622 6.3562ZM23.4565 7.42765C23.4639 7.37049 23.4606 7.31805 23.4474 7.27013C23.4341 7.22303 23.4107 7.18182 23.3771 7.14667C23.3442 7.11144 23.2999 7.08218 23.2442 7.05809C23.1886 7.03463 23.1147 7.01679 23.022 7.0051L22.7223 6.96751L22.6321 7.66831L22.9976 7.71424C23.0678 7.72302 23.1279 7.72329 23.1785 7.71451C23.2283 7.70617 23.2725 7.68942 23.3117 7.66532C23.3503 7.64105 23.3823 7.60953 23.4083 7.56931C23.4333 7.52955 23.4495 7.48217 23.4565 7.42765ZM27.0616 8.99537C27.0478 9.02997 27.0351 9.05814 27.0226 9.08069C27.0103 9.10261 26.9984 9.11982 26.9867 9.13142C26.9748 9.14355 26.9631 9.15107 26.9513 9.15415C26.9399 9.1575 26.9283 9.15642 26.9178 9.15234L25.7455 8.69601C25.706 8.6807 25.6774 8.65615 25.6595 8.62246C25.6416 8.58885 25.6432 8.54583 25.664 8.49348L26.4674 6.48165C26.4883 6.4293 26.5169 6.39687 26.5531 6.38428C26.5896 6.37178 26.6274 6.37305 26.6669 6.38845L27.8336 6.8426C27.8442 6.84668 27.8527 6.85366 27.8589 6.86308C27.8645 6.87222 27.8678 6.88545 27.8681 6.90248C27.8676 6.91987 27.865 6.94061 27.8588 6.96498C27.8524 6.98988 27.8421 7.01959 27.8277 7.05546C27.8144 7.08889 27.8019 7.11651 27.7894 7.13898C27.777 7.16099 27.7652 7.1781 27.7534 7.1897C27.7414 7.20193 27.7299 7.20935 27.7192 7.21289C27.7079 7.21633 27.6968 7.21551 27.6864 7.21144L26.8525 6.88681L26.6279 7.44911L27.3306 7.72266C27.3417 7.72692 27.3503 7.7338 27.3562 7.74385C27.3628 7.75418 27.3663 7.76677 27.3669 7.78317C27.3678 7.79893 27.3647 7.81885 27.3583 7.84376C27.3523 7.86813 27.3423 7.89657 27.3292 7.92945C27.3153 7.96414 27.3027 7.99231 27.2905 8.0136C27.2785 8.03488 27.267 8.05146 27.2554 8.06251C27.2437 8.07401 27.2324 8.08098 27.2209 8.0828C27.2098 8.08551 27.1988 8.08479 27.1877 8.08044L26.4851 7.8069L26.2255 8.45688L27.065 8.7836C27.0761 8.78795 27.0847 8.79483 27.0907 8.80488C27.0972 8.81521 27.1006 8.82834 27.1009 8.84537C27.1015 8.86177 27.0982 8.88233 27.0921 8.9066C27.0857 8.9316 27.0755 8.96059 27.0616 8.99537ZM30.1191 11.0212C30.1106 11.0329 30.1006 11.0412 30.0885 11.0455C30.0761 11.0504 30.0603 11.0498 30.0394 11.0439C30.0189 11.0384 29.9937 11.0271 29.9628 11.0102C29.9318 10.9932 29.8951 10.9699 29.8519 10.9395C29.7833 10.8914 29.7361 10.8543 29.7097 10.8277C29.6829 10.8017 29.6671 10.7785 29.6618 10.7587C29.6561 10.7395 29.6551 10.7195 29.6579 10.6998L29.7302 9.30578L29.0391 10.2654C29.0311 10.2766 29.0206 10.2845 29.008 10.2885C28.9963 10.2923 28.9795 10.2917 28.96 10.286C28.9402 10.2809 28.9159 10.2704 28.8873 10.2551C28.8591 10.2401 28.8238 10.2178 28.7834 10.1894C28.7435 10.1613 28.7111 10.1362 28.6864 10.1141C28.6617 10.0919 28.6437 10.0729 28.6323 10.0559C28.6209 10.0392 28.6145 10.0242 28.6132 10.0114C28.6124 9.99788 28.6164 9.98547 28.6246 9.97424L29.9963 8.06957C30.0047 8.05789 30.0149 8.05055 30.028 8.04693C30.0408 8.04385 30.0572 8.04493 30.0766 8.05055C30.0961 8.05617 30.1199 8.06731 30.1492 8.08298C30.1784 8.09874 30.2131 8.12066 30.253 8.14865C30.2936 8.17709 30.3264 8.20263 30.3501 8.22401C30.3741 8.24575 30.3926 8.26431 30.4043 8.28062C30.4161 8.29701 30.4226 8.31187 30.4227 8.324C30.423 8.33714 30.4193 8.349 30.411 8.36069L29.7909 9.22163L31.009 8.78305C31.0262 8.77508 31.043 8.76992 31.0602 8.76838C31.077 8.76657 31.0961 8.76947 31.1166 8.7759C31.1368 8.78287 31.1611 8.79438 31.1891 8.81077C31.2171 8.82717 31.2514 8.84954 31.2924 8.87843C31.3345 8.90796 31.3679 8.93387 31.3931 8.95633C31.4184 8.97897 31.4369 8.99836 31.4494 9.01593C31.4619 9.03269 31.4677 9.04808 31.4679 9.06031C31.4683 9.07326 31.465 9.08468 31.4574 9.09537C31.4446 9.11294 31.4267 9.12761 31.4037 9.14038C31.3806 9.15225 31.3417 9.16901 31.2856 9.19147L30.2019 9.52461L30.1556 10.8678C30.148 10.9268 30.1414 10.9654 30.1362 10.9827C30.1311 10.9999 30.1252 11.0126 30.1191 11.0212ZM33.6193 12.937C33.462 13.0715 33.3044 13.1725 33.1463 13.2401C32.9884 13.3078 32.8323 13.3408 32.679 13.3379C32.5256 13.3358 32.3767 13.2978 32.2326 13.2245C32.0881 13.1509 31.9515 13.0401 31.8218 12.8923C31.6939 12.7465 31.6019 12.6026 31.5454 12.4613C31.4886 12.3196 31.4678 12.1791 31.4837 12.0382C31.4995 11.8985 31.5524 11.7579 31.6429 11.6173C31.7334 11.4767 31.8621 11.3347 32.0293 11.1917C32.1826 11.0606 32.3378 10.9617 32.4943 10.8953C32.6508 10.8289 32.8053 10.7972 32.9586 10.8001C33.1115 10.8027 33.2605 10.8406 33.4046 10.9138C33.5495 10.9872 33.687 11.098 33.8176 11.2469C33.9421 11.3887 34.0328 11.53 34.0901 11.6714C34.1471 11.8122 34.1683 11.9534 34.1524 12.094C34.1376 12.2349 34.0861 12.375 33.9979 12.5153C33.9092 12.6561 33.7835 12.7965 33.6193 12.937ZM33.2484 12.5532C33.3481 12.4679 33.4317 12.3824 33.4999 12.2974C33.5681 12.2122 33.6152 12.1261 33.6408 12.0393C33.6662 11.9526 33.668 11.8646 33.6458 11.7754C33.6231 11.6866 33.5716 11.5957 33.4905 11.5033C33.4084 11.4098 33.3219 11.3471 33.2317 11.3152C33.141 11.2829 33.0483 11.273 32.9548 11.2854C32.8614 11.2979 32.7679 11.3302 32.6744 11.3825C32.5805 11.4351 32.4893 11.4992 32.4002 11.5754C32.2966 11.6641 32.2104 11.7517 32.1412 11.8376C32.0721 11.9237 32.0244 12.0102 31.9974 12.0974C31.9709 12.1841 31.9693 12.2711 31.9925 12.3594C32.0161 12.4475 32.0687 12.5383 32.1507 12.6317C32.2326 12.7252 32.3188 12.7883 32.409 12.8202C32.499 12.853 32.5919 12.8628 32.6862 12.8495C32.7807 12.8363 32.8752 12.8031 32.9697 12.75C33.0641 12.6968 33.1573 12.6312 33.2484 12.5532ZM34.1166 16.3147C34.0939 16.3177 34.0743 16.3178 34.0579 16.3136C34.0408 16.3097 34.025 16.2989 34.0088 16.281C33.9925 16.2631 33.9753 16.2363 33.9569 16.2007C33.9386 16.1659 33.9165 16.119 33.8897 16.0606C33.8684 16.0141 33.8502 15.9741 33.8355 15.9405C33.8208 15.9069 33.8098 15.878 33.8015 15.8537C33.7934 15.8294 33.7882 15.8087 33.7859 15.7925C33.7839 15.7755 33.7845 15.7608 33.787 15.7475C33.7893 15.735 33.7948 15.7232 33.8021 15.7135C33.8099 15.7036 33.8203 15.6932 33.8334 15.6816L35.5554 14.1041C35.5921 14.0713 35.6212 14.0475 35.6448 14.0341C35.6681 14.0201 35.6893 14.0171 35.7089 14.0263C35.7274 14.0352 35.7467 14.0568 35.7656 14.09C35.7847 14.1239 35.8083 14.1722 35.8373 14.2353C35.8618 14.2889 35.8797 14.3313 35.8911 14.3627C35.9026 14.3942 35.9091 14.4194 35.9111 14.4378C35.9124 14.4567 35.9088 14.4726 35.9 14.4838C35.891 14.4956 35.8791 14.508 35.8639 14.5222L34.3493 15.8592L34.35 15.8609L36.3547 15.6166C36.3768 15.6125 36.3958 15.6112 36.4109 15.6124C36.4269 15.6139 36.4419 15.6216 36.4571 15.6355C36.4715 15.6492 36.4874 15.6716 36.5043 15.7021C36.5209 15.732 36.5421 15.7749 36.5672 15.8297C36.5917 15.8834 36.609 15.926 36.6191 15.9575C36.629 15.9889 36.6298 16.0128 36.6217 16.0302C36.6128 16.0471 36.5951 16.0593 36.5684 16.0661C36.542 16.0736 36.5051 16.0786 36.4572 16.0834L34.1166 16.3147Z" fill="white"/>
<path d="M58.6752 2.74219V7.43801H58.3013C58.1802 6.53577 57.9621 5.81803 57.6437 5.28489C57.4914 5.01832 57.2975 4.77566 57.0656 4.5638C56.8337 4.3484 56.5811 4.16734 56.3076 4.01689C56.0341 3.86653 55.7468 3.75032 55.4387 3.66835C55.1342 3.58293 54.8261 3.5419 54.5146 3.5419C54.1718 3.5419 53.8534 3.59996 53.5557 3.71617C53.258 3.83238 53.0019 3.98963 52.7838 4.18102C52.5658 4.37576 52.3962 4.59795 52.2751 4.8474C52.1539 5.09694 52.0916 5.35663 52.0916 5.6232C52.0916 5.99574 52.1781 6.32382 52.3546 6.60071C52.5277 6.87752 52.77 7.13041 53.078 7.36619C53.3827 7.59861 53.7427 7.82415 54.1581 8.04633C54.5734 8.26508 55.0233 8.5043 55.508 8.75719C56.0515 9.04432 56.5706 9.32457 57.0621 9.59793C57.5537 9.87139 57.9864 10.1721 58.3602 10.5036C58.7341 10.8317 59.0317 11.211 59.2567 11.6348C59.4782 12.0587 59.589 12.5644 59.589 13.1591C59.589 13.665 59.4817 14.1502 59.2705 14.6048C59.056 15.0628 58.7617 15.4626 58.3775 15.8078C57.9968 16.1495 57.5398 16.423 57.0102 16.628C56.4806 16.8297 55.8991 16.9322 55.2657 16.9322C55.0268 16.9322 54.8261 16.9288 54.6565 16.922C54.4869 16.9151 54.3242 16.9014 54.1718 16.8775C54.0162 16.8536 53.8534 16.816 53.6908 16.7682C53.5246 16.7169 53.3273 16.6485 53.0954 16.5631C52.9361 16.5016 52.77 16.4469 52.6004 16.3991C52.4308 16.3478 52.2751 16.3068 52.1365 16.2726C51.9946 16.2384 51.8735 16.2145 51.7766 16.194C51.6762 16.1734 51.6139 16.1632 51.5897 16.1632C51.4201 16.1632 51.285 16.2145 51.1882 16.3136C51.0912 16.4127 51.0185 16.6178 50.9701 16.9322H50.5963V12.2774H50.9701C51.0566 12.7661 51.1604 13.1899 51.2781 13.5556C51.3958 13.9179 51.5308 14.222 51.6797 14.4715C51.8285 14.7107 52.0188 14.9329 52.2542 15.1414C52.4931 15.3498 52.7561 15.5275 53.0503 15.6779C53.3446 15.8283 53.6596 15.9444 54.0023 16.0265C54.3415 16.1119 54.6911 16.153 55.0477 16.153C55.4734 16.153 55.8541 16.0915 56.1934 15.9718C56.5291 15.8522 56.8164 15.6916 57.0518 15.4865C57.2907 15.2849 57.4706 15.0456 57.5952 14.7756C57.7198 14.5056 57.7821 14.2254 57.7821 13.9315C57.7821 13.4975 57.6921 13.1317 57.5087 12.8345C57.3287 12.5371 57.083 12.274 56.7749 12.0381C56.4702 11.8058 56.1137 11.5836 55.7053 11.3683C55.2968 11.1564 54.8677 10.9138 54.4142 10.6472C53.9019 10.3464 53.4104 10.0628 52.9327 9.79277C52.4584 9.52275 52.0397 9.22539 51.6762 8.90075C51.3093 8.57948 51.0185 8.21037 50.8005 7.79688C50.5824 7.3833 50.4717 6.88775 50.4717 6.31358C50.4717 5.83515 50.572 5.37719 50.7762 4.94314C50.977 4.50909 51.2574 4.12975 51.6139 3.80159C51.9739 3.47695 52.3962 3.21718 52.8842 3.02579C53.3723 2.83784 53.9088 2.74219 54.4869 2.74219C55.2033 2.74219 55.9753 2.9199 56.8025 3.27189C57.1695 3.43937 57.436 3.52134 57.6021 3.52134C57.7787 3.52134 57.9206 3.47007 58.0348 3.36763C58.1456 3.26509 58.2356 3.05658 58.3013 2.74219H58.6752ZM70.2155 12.0723H64.8954L63.9642 14.2186C63.7358 14.7415 63.6215 15.1345 63.6215 15.4045C63.6215 15.5105 63.6388 15.6096 63.6769 15.6984C63.715 15.7907 63.7911 15.8727 63.9053 15.9479C64.023 16.0265 64.1858 16.0915 64.3969 16.1393C64.6045 16.1905 64.8815 16.2281 65.2207 16.2555V16.6246H60.8801V16.2555C61.4478 16.1564 61.8216 16.0265 61.9981 15.8659C62.1747 15.7052 62.3547 15.4626 62.5415 15.1379C62.725 14.8167 62.9292 14.4065 63.1439 13.9144L67.9725 2.74219H68.329L73.1162 14.0341C73.3135 14.4988 73.4935 14.8747 73.6596 15.1584C73.8258 15.4421 73.9954 15.6642 74.1719 15.8214C74.3484 15.9752 74.5389 16.0846 74.7431 16.1462C74.9508 16.2042 75.1965 16.2418 75.4804 16.2555V16.6246H70.0597V16.2555C70.3297 16.2418 70.5548 16.211 70.7348 16.1666C70.9181 16.1188 71.0601 16.0573 71.1639 15.9855C71.2678 15.9103 71.3405 15.8283 71.3855 15.7326C71.4305 15.6403 71.4512 15.5378 71.4512 15.4216C71.4582 15.2746 71.427 15.0867 71.3544 14.8577C71.2851 14.6253 71.1812 14.3485 71.0463 14.0272L70.2155 12.0723ZM69.9317 11.3341L67.5987 5.85218L65.2103 11.3341H69.9317ZM87.6299 12.872L87.9657 12.9438L86.7818 16.6246H76.1277V16.2555H76.6434C77.218 16.2555 77.6334 16.0675 77.8895 15.695C78.0314 15.4865 78.1007 14.9944 78.1007 14.2118V5.45237C78.1007 4.59795 78.0072 4.0648 77.8168 3.85974C77.5537 3.56581 77.1626 3.4188 76.6434 3.4188H76.1277V3.0497H82.3581V3.4188C81.9843 3.4188 81.6762 3.43592 81.4305 3.47007C81.1813 3.50087 80.9771 3.55213 80.8179 3.62052C80.6621 3.68546 80.534 3.764 80.444 3.85285C80.354 3.94515 80.2779 4.04424 80.2156 4.15022C80.1083 4.35529 80.0529 4.86796 80.0529 5.68135V14.2118C80.0529 14.4441 80.0598 14.6457 80.0771 14.8132C80.0944 14.9807 80.1256 15.1174 80.1637 15.2268C80.2051 15.3396 80.2605 15.4284 80.3263 15.4968C80.3956 15.5686 80.4821 15.6233 80.5928 15.6642C80.7521 15.7291 81.2817 15.7634 82.1747 15.7634H83.182C84.2308 15.7634 84.9716 15.6882 85.4077 15.5344C85.6223 15.4592 85.8265 15.36 86.0169 15.2336C86.2038 15.1071 86.3908 14.9397 86.5707 14.7278C86.7472 14.5193 86.9237 14.2631 87.0969 13.9622C87.2699 13.6615 87.4465 13.2992 87.6299 12.872ZM96.2246 3.0497H101.022V3.4188H100.759C100.679 3.4188 100.569 3.43937 100.43 3.4804C100.292 3.51799 100.146 3.57605 99.9905 3.64778C99.8349 3.72305 99.6756 3.81526 99.5163 3.92803C99.3537 4.04424 99.2048 4.17069 99.0698 4.31081C98.9279 4.45782 98.7756 4.64577 98.6095 4.88164C98.4433 5.11397 98.2564 5.39086 98.0452 5.71205L94.7293 10.8693V14.2733C94.7293 15.1071 94.8227 15.6266 95.0131 15.8351C95.2658 16.1154 95.6708 16.2555 96.235 16.2555H96.6815V16.6246H90.8247V16.2555H91.3129C91.8943 16.2555 92.3097 16.0812 92.552 15.736C92.7009 15.5275 92.777 15.0389 92.777 14.2733V11.0572L89.0075 5.3703C88.786 5.032 88.5991 4.75854 88.4468 4.55691C88.2945 4.35185 88.1768 4.20493 88.0972 4.11942C88.0556 4.07848 87.9898 4.02033 87.893 3.94515C87.7995 3.86653 87.6818 3.78791 87.5399 3.70938C87.3979 3.62731 87.2388 3.55893 87.0692 3.50431C86.896 3.44616 86.7161 3.4188 86.5257 3.4188V3.0497H92.4032V3.4188H92.0986C91.9497 3.4188 91.8009 3.43592 91.6486 3.47007C91.4962 3.50087 91.3613 3.55558 91.2401 3.63076C91.119 3.70249 91.0186 3.79479 90.9424 3.90412C90.8628 4.01354 90.8247 4.14678 90.8247 4.30058C90.8247 4.5398 91.0324 4.97384 91.4443 5.60273L94.3104 9.97727L97.0068 5.79067C97.4118 5.16523 97.6161 4.69704 97.6161 4.38944C97.6022 4.24931 97.571 4.11942 97.5261 3.99986C97.4776 3.88021 97.4014 3.77432 97.3011 3.68882C97.2007 3.6034 97.0623 3.53502 96.8857 3.49063C96.7092 3.44281 96.4876 3.4188 96.2246 3.4188V3.0497ZM109.8 16.6246L104.494 5.20283V14.2733C104.494 15.1071 104.584 15.6266 104.767 15.8351C105.02 16.1154 105.415 16.2555 105.958 16.2555H106.446V16.6246H101.649V16.2555H102.137C102.718 16.2555 103.134 16.0812 103.376 15.736C103.525 15.5275 103.601 15.0389 103.601 14.2733V5.4011C103.601 4.81325 103.532 4.3792 103.397 4.09895C103.352 3.99986 103.286 3.90756 103.203 3.82559C103.123 3.74008 103.012 3.66835 102.874 3.61019C102.736 3.54869 102.566 3.50087 102.372 3.47007C102.175 3.43592 101.932 3.4188 101.649 3.4188V3.0497H105.55L110.527 13.6718L115.439 3.0497H119.343V3.4188H118.866C118.277 3.4188 117.858 3.59317 117.616 3.93836C117.467 4.14678 117.391 4.63209 117.391 5.4011V14.2733C117.391 15.1071 117.485 15.6266 117.675 15.8351C117.928 16.1154 118.322 16.2555 118.866 16.2555H119.343V16.6246H113.487V16.2555H113.975C114.556 16.2555 114.972 16.0812 115.214 15.736C115.363 15.5275 115.439 15.0422 115.439 14.2733V5.20283L110.133 16.6246H109.8ZM129.375 9.68679C129.935 9.80644 130.413 9.97048 130.808 10.1789C131.202 10.3874 131.524 10.6301 131.773 10.9103C132.023 11.1906 132.206 11.5015 132.32 11.8365C132.434 12.1749 132.493 12.5303 132.493 12.9062C132.493 13.2412 132.438 13.5727 132.327 13.9042C132.213 14.2323 132.054 14.5433 131.843 14.8338C131.635 15.1243 131.379 15.3908 131.078 15.6266C130.776 15.8659 130.437 16.0573 130.06 16.2042C129.309 16.4845 128.156 16.6246 126.609 16.6246H120.115V16.2555H120.635C121.202 16.2555 121.618 16.0743 121.874 15.7155C122.029 15.4797 122.109 14.9841 122.109 14.222V5.45237C122.109 4.61842 122.012 4.08528 121.815 3.85974C121.548 3.56581 121.157 3.4188 120.635 3.4188H120.115V3.0497H126.059C127.166 3.0497 128.056 3.12832 128.727 3.28901C129.233 3.40857 129.679 3.57949 130.07 3.79823C130.458 4.02033 130.783 4.27667 131.05 4.57059C131.313 4.86107 131.51 5.1858 131.645 5.54457C131.78 5.90009 131.849 6.27599 131.849 6.66901C131.849 7.34916 131.642 7.95748 131.223 8.49406C130.808 9.03064 130.191 9.42701 129.375 9.68679ZM124.061 9.14341C124.574 9.23562 125.21 9.28354 125.975 9.28354C126.965 9.28354 127.706 9.181 128.191 8.97593C128.443 8.86652 128.661 8.73328 128.855 8.5658C129.049 8.39832 129.208 8.21381 129.336 8.0053C129.465 7.80023 129.561 7.57814 129.631 7.33892C129.696 7.09962 129.731 6.85016 129.731 6.59039C129.731 6.20425 129.648 5.83515 129.482 5.48651C129.319 5.13788 129.073 4.83372 128.748 4.57403C128.426 4.31426 128.025 4.10919 127.543 3.95539C127.066 3.80159 126.512 3.72641 125.885 3.72641C125.197 3.72641 124.587 3.79823 124.061 3.94515V9.14341ZM124.061 15.6369C124.84 15.818 125.612 15.9069 126.384 15.9069C127 15.9069 127.54 15.8351 128.011 15.6882C128.481 15.5412 128.876 15.3396 129.195 15.0798C129.51 14.8235 129.748 14.5227 129.908 14.181C130.067 13.8358 130.146 13.4667 130.146 13.0737C130.146 12.6396 130.06 12.2329 129.887 11.857C129.714 11.481 129.451 11.153 129.098 10.8762C128.741 10.5993 128.295 10.3806 127.758 10.2199C127.222 10.0593 126.588 9.98071 125.858 9.98071C125.432 9.98071 125.072 9.98751 124.778 10.0012C124.484 10.0149 124.245 10.0388 124.061 10.0696V15.6369ZM137.976 3.78791V9.13997H141.005C141.444 9.13997 141.801 9.10238 142.074 9.02376C142.351 8.94858 142.566 8.82893 142.722 8.66489C142.877 8.50085 142.985 8.29579 143.047 8.04978C143.106 7.80368 143.147 7.50975 143.168 7.17144H143.542V11.8877H143.168C143.12 11.5562 143.075 11.2862 143.026 11.0778C142.978 10.8693 142.929 10.7155 142.884 10.6232C142.822 10.5036 142.746 10.4011 142.649 10.3122C142.556 10.2199 142.434 10.1448 142.286 10.0764C142.137 10.0115 141.957 9.96024 141.746 9.92945C141.534 9.8953 141.289 9.87818 141.005 9.87818H137.976V14.3621C137.976 14.9568 138.004 15.3259 138.056 15.466C138.083 15.5241 138.118 15.5822 138.16 15.6369C138.198 15.6882 138.26 15.7326 138.336 15.7702C138.412 15.8078 138.516 15.8351 138.641 15.8556C138.765 15.8762 138.925 15.8864 139.111 15.8864H141.444C141.846 15.8864 142.178 15.8762 142.445 15.8522C142.711 15.8283 142.947 15.7873 143.144 15.7326C143.345 15.6745 143.521 15.5925 143.674 15.4899C143.826 15.3874 143.985 15.2542 144.155 15.0935C144.362 14.8953 144.577 14.6355 144.795 14.3246C145.01 14.0101 145.228 13.641 145.442 13.2206H145.847L144.664 16.6246H134.051V16.2555H134.539C134.667 16.2555 134.802 16.2418 134.947 16.2145C135.089 16.1871 135.221 16.1462 135.349 16.0846C135.473 16.0265 135.588 15.9513 135.688 15.859C135.789 15.7702 135.861 15.6642 135.903 15.5446C135.982 15.3361 136.024 14.8987 136.024 14.2323V5.41133C136.024 4.55691 135.937 4.02722 135.761 3.8187C135.515 3.55213 135.11 3.4188 134.539 3.4188H134.051V3.0497H144.664V6.0231H144.414C144.342 5.66079 144.265 5.36351 144.193 5.13109C144.117 4.89866 144.034 4.70392 143.937 4.55012C143.843 4.39632 143.736 4.27322 143.615 4.18437C143.49 4.09216 143.345 4.0101 143.179 3.93836C142.902 3.83918 142.424 3.78791 141.749 3.78791H137.976ZM152.524 9.0887L157.575 14.0717C158.402 14.8918 159.112 15.4523 159.697 15.7531C160.299 16.047 160.894 16.2145 161.483 16.2555V16.6246H154.94V16.2555C155.332 16.2555 155.612 16.1905 155.785 16.0607C155.955 15.9309 156.041 15.7839 156.041 15.6233C156.041 15.5446 156.038 15.4728 156.031 15.408C156.024 15.3464 156 15.2781 155.955 15.2029C155.91 15.1311 155.84 15.0354 155.744 14.9226C155.647 14.8099 155.501 14.6629 155.314 14.4817L150.579 9.84059V14.222C150.579 14.5399 150.586 14.803 150.6 15.0013C150.614 15.2029 150.638 15.3669 150.676 15.4934C150.714 15.6198 150.77 15.7224 150.842 15.801C150.918 15.8762 151.015 15.9479 151.14 16.0163C151.431 16.1769 151.739 16.2555 152.064 16.2555H152.531V16.6246H146.654V16.2555H147.142C147.72 16.2555 148.132 16.0915 148.385 15.7634C148.547 15.5583 148.627 15.0422 148.627 14.222V5.45237C148.627 5.14476 148.623 4.89187 148.613 4.69024C148.603 4.48853 148.575 4.32449 148.537 4.19469C148.495 4.06481 148.44 3.95883 148.367 3.88021C148.298 3.79823 148.201 3.72641 148.077 3.65811C147.779 3.49743 147.467 3.4188 147.142 3.4188H146.654V3.0497H152.531V3.4188H152.064C151.936 3.4188 151.801 3.43248 151.663 3.45984C151.524 3.48719 151.393 3.52822 151.265 3.58293C151.14 3.64099 151.026 3.71273 150.925 3.80503C150.821 3.89388 150.749 4.0033 150.7 4.12975C150.621 4.34161 150.579 4.78245 150.579 5.44892V9.60137C150.842 9.38607 151.143 9.12629 151.479 8.81869C151.818 8.51109 152.164 8.1899 152.517 7.84815C152.874 7.50975 153.224 7.168 153.57 6.82969C153.919 6.48785 154.234 6.17346 154.518 5.88297C154.802 5.59584 155.041 5.34295 155.231 5.12765C155.425 4.91578 155.546 4.77222 155.602 4.70048C155.785 4.43391 155.875 4.19804 155.875 3.99986C155.875 3.84606 155.806 3.70938 155.667 3.59317C155.529 3.47695 155.287 3.4188 154.944 3.4188H154.629V3.0497H159.676V3.4188C159.378 3.43248 159.108 3.47351 158.866 3.53846C158.745 3.57949 158.61 3.63076 158.461 3.69905C158.312 3.764 158.146 3.85629 157.969 3.96906C157.789 4.08183 157.592 4.22196 157.381 4.38264C157.166 4.54668 156.931 4.74486 156.675 4.97729L152.524 9.0887ZM168.907 2.74219C170.683 2.74219 172.227 3.41201 173.539 4.75519C174.851 6.08804 175.505 7.75585 175.505 9.75853C175.505 11.8194 174.847 13.5282 173.528 14.8918C172.213 16.2521 170.617 16.9322 168.745 16.9322C166.848 16.9322 165.256 16.2692 163.971 14.9397C162.687 13.6137 162.047 11.8946 162.047 9.78588C162.047 7.63276 162.791 5.87274 164.276 4.51253C165.567 3.33339 167.111 2.74219 168.907 2.74219ZM168.713 3.4804C168.021 3.4804 167.402 3.62731 166.862 3.92124C166.322 4.21172 165.868 4.63209 165.501 5.17547C165.134 5.71894 164.854 6.37508 164.66 7.14753C164.47 7.92333 164.373 8.78799 164.373 9.74829C164.373 10.7018 164.466 11.5733 164.657 12.3663C164.844 13.1591 165.124 13.8392 165.491 14.41C165.858 14.9807 166.311 15.4216 166.851 15.7395C167.391 16.0573 168.018 16.2145 168.724 16.2145C169.361 16.2145 169.949 16.0949 170.493 15.8556C171.036 15.6164 171.507 15.2438 171.905 14.7415C172.303 14.2357 172.615 13.5966 172.839 12.8173C173.064 12.0347 173.179 11.1051 173.179 10.0285C173.179 8.99305 173.085 8.07369 172.902 7.26365C172.715 6.4537 172.435 5.7702 172.061 5.20971C171.687 4.64921 171.22 4.22196 170.662 3.92468C170.108 3.62731 169.458 3.4804 168.713 3.4804ZM191.064 3.0497V3.4188C190.773 3.47351 190.524 3.54869 190.316 3.64778C190.112 3.75032 189.928 3.88021 189.773 4.04089C189.617 4.19804 189.482 4.39288 189.361 4.61507C189.243 4.83716 189.125 5.0935 189.001 5.38054L184.207 16.9322H183.829L178.686 5.23018C178.416 4.61507 178.229 4.24931 178.129 4.12975C177.959 3.92124 177.751 3.76064 177.509 3.64443C177.267 3.52822 176.931 3.45304 176.505 3.4188V3.0497H182.113V3.4188C181.791 3.45304 181.528 3.49407 181.33 3.54869C181.13 3.6034 180.977 3.66835 180.87 3.74353C180.763 3.82215 180.69 3.90756 180.652 4.0033C180.614 4.10239 180.597 4.21172 180.597 4.33138C180.597 4.66968 180.752 5.19259 181.064 5.89321L184.56 13.8563L187.803 5.9923C188.122 5.21315 188.281 4.67313 188.281 4.3792C188.281 4.17413 188.17 3.9793 187.952 3.79479C187.734 3.6102 187.36 3.48719 186.827 3.4188V3.0497H191.064Z" fill="white"/>
<path d="M58.9544 25.4198V25.0507H63.8142V25.4198H63.2984C62.7584 25.4198 62.3431 25.642 62.0523 26.0897C61.9104 26.305 61.8412 26.7869 61.8412 27.532V33.0445C61.8412 34.3979 61.7027 35.4574 61.4258 36.2196C61.2493 36.7049 61 37.1218 60.6781 37.467C60.3527 37.8087 59.9789 38.0924 59.5532 38.3112C59.1274 38.5333 58.6601 38.694 58.1478 38.7998C57.639 38.9024 57.1094 38.9536 56.5556 38.9536C55.0637 38.9536 53.9249 38.6973 53.1426 38.1813C52.6477 37.8634 52.2669 37.5217 52.0004 37.1663C51.7339 36.8074 51.54 36.4144 51.4154 35.9838C51.2908 35.5531 51.2181 35.0746 51.1973 34.5517C51.1766 34.0254 51.1662 33.4308 51.1662 32.7643V27.4533C51.1662 27.033 51.1385 26.6878 51.0796 26.4212C51.0243 26.1546 50.9343 25.9461 50.8131 25.7992C50.6919 25.6522 50.5362 25.5531 50.3528 25.4984C50.1658 25.4471 49.9442 25.4198 49.6881 25.4198H49.1724V25.0507H55.1122V25.4198H54.586C54.2607 25.4198 54.0011 25.4643 53.8072 25.5566C53.6099 25.6454 53.4611 25.7786 53.3607 25.9496C53.2603 26.1238 53.1945 26.3391 53.1634 26.592C53.1322 26.845 53.1184 27.1321 53.1184 27.4533V33.3727C53.1184 33.7076 53.1287 34.0391 53.1496 34.3672C53.1703 34.6919 53.2084 35.0097 53.2707 35.3139C53.3296 35.6147 53.4126 35.9052 53.5164 36.1752C53.6238 36.4451 53.7588 36.6946 53.9283 36.9202C54.1914 37.2825 54.5445 37.5661 54.9841 37.778C55.4271 37.9865 55.9913 38.0924 56.6802 38.0924C57.1233 38.0924 57.549 38.0412 57.9575 37.9386C58.3659 37.8327 58.7397 37.6892 59.0824 37.508C59.4216 37.3234 59.7158 37.1047 59.9651 36.8552C60.2143 36.6058 60.4047 36.3289 60.5327 36.0282C60.7958 35.4198 60.9274 34.3945 60.9274 32.9523V27.4533C60.9274 26.5989 60.8339 26.0691 60.6436 25.8607C60.3804 25.5668 59.9893 25.4198 59.4701 25.4198H58.9544ZM65.6972 25.0507H69.4148L77.826 35.2421V27.4054C77.826 26.5681 77.7325 26.0487 77.5421 25.8402C77.2825 25.5599 76.888 25.4198 76.3515 25.4198H75.8738V25.0507H80.6712V25.4198H80.1832C79.6017 25.4198 79.1864 25.5941 78.944 25.9393C78.7952 26.1478 78.719 26.6365 78.719 27.4021V38.8511H78.3452L69.2901 27.9215V36.2743C69.2901 37.1081 69.3801 37.631 69.5636 37.8361C69.8162 38.1163 70.2109 38.2565 70.7544 38.2565H71.2424V38.6256H66.4449V38.2565H66.9226C67.511 38.2565 67.9298 38.0822 68.1721 37.737C68.3209 37.5285 68.3972 37.0398 68.3972 36.2743V26.8313C68.1963 26.5989 68.0267 26.411 67.8918 26.2708C67.7567 26.1307 67.6287 26.0145 67.5076 25.9257C67.3864 25.8368 67.2548 25.7616 67.1129 25.7035C66.971 25.6488 66.7945 25.5839 66.5868 25.5087C66.3929 25.4506 66.0953 25.4198 65.6972 25.4198V25.0507ZM89.304 38.2565V38.6256H83.4058V38.2565H83.8939C84.4719 38.2565 84.8838 38.0924 85.1365 37.7644C85.2992 37.5593 85.3788 37.0432 85.3788 36.223V27.4533C85.3788 27.1321 85.3719 26.8723 85.358 26.6707C85.3442 26.4725 85.32 26.305 85.2819 26.1751C85.2438 26.0452 85.1919 25.9427 85.1192 25.8709C85.05 25.7958 84.9531 25.7274 84.8284 25.6591C84.5307 25.4984 84.2193 25.4198 83.8939 25.4198H83.4058V25.0507H89.304V25.4198H88.8091C88.2414 25.4198 87.8329 25.5839 87.5838 25.912C87.4141 26.117 87.331 26.6296 87.331 27.4533V36.223C87.331 36.5443 87.338 36.804 87.3519 37.0056C87.3657 37.2039 87.3899 37.3679 87.428 37.4943C87.4661 37.6208 87.5214 37.7233 87.5941 37.8019C87.6668 37.8771 87.7672 37.9489 87.8883 38.0173C88.1791 38.1778 88.4837 38.2565 88.8091 38.2565H89.304ZM106.469 25.0507V25.4198C106.179 25.4745 105.929 25.5497 105.722 25.6488C105.517 25.7513 105.334 25.8812 105.178 26.0419C105.022 26.199 104.887 26.3939 104.766 26.616C104.648 26.8381 104.531 27.0945 104.406 27.3815L99.6122 38.9332H99.2349L94.0912 27.2312C93.8212 26.616 93.6343 26.2503 93.534 26.1307C93.3644 25.9222 93.1567 25.7616 92.9144 25.6454C92.672 25.5292 92.3363 25.454 91.9106 25.4198V25.0507H97.5181V25.4198C97.1962 25.454 96.9331 25.4951 96.7357 25.5497C96.535 25.6044 96.3827 25.6693 96.2754 25.7445C96.1681 25.8231 96.0954 25.9085 96.0573 26.0043C96.0193 26.1034 96.0019 26.2127 96.0019 26.3324C96.0019 26.6707 96.1577 27.1936 96.4692 27.8942L99.9653 35.8572L103.209 27.9933C103.527 27.2141 103.686 26.6741 103.686 26.3802C103.686 26.1751 103.576 25.9803 103.357 25.7958C103.139 25.6112 102.765 25.4882 102.232 25.4198V25.0507H106.469ZM112.984 25.7889V31.1409H116.012C116.452 31.1409 116.809 31.1034 117.082 31.0247C117.359 30.9496 117.573 30.8299 117.729 30.6659C117.885 30.5018 117.992 30.2968 118.055 30.0508C118.113 29.8047 118.155 29.5107 118.176 29.1724H118.55V33.8887H118.176C118.127 33.5572 118.082 33.2872 118.034 33.0788C117.985 32.8703 117.937 32.7165 117.892 32.6242C117.83 32.5046 117.753 32.4021 117.657 32.3132C117.563 32.2209 117.442 32.1457 117.293 32.0773C117.144 32.0125 116.964 31.9612 116.753 31.9304C116.542 31.8963 116.296 31.8792 116.012 31.8792H112.984V36.3631C112.984 36.9578 113.011 37.3269 113.063 37.467C113.091 37.5251 113.126 37.5832 113.167 37.6379C113.205 37.6892 113.267 37.7336 113.344 37.7711C113.42 37.8087 113.524 37.8361 113.648 37.8566C113.773 37.8771 113.932 37.8874 114.119 37.8874H116.452C116.853 37.8874 117.186 37.8771 117.452 37.8532C117.719 37.8293 117.954 37.7883 118.151 37.7336C118.352 37.6755 118.529 37.5934 118.681 37.4909C118.833 37.3884 118.993 37.2551 119.162 37.0944C119.37 36.8963 119.585 36.6365 119.803 36.3255C120.017 36.011 120.235 35.6419 120.45 35.2216H120.855L119.671 38.6256H109.058V38.2565H109.546C109.675 38.2565 109.81 38.2428 109.955 38.2154C110.097 38.1881 110.228 38.1471 110.356 38.0855C110.481 38.0275 110.595 37.9523 110.696 37.86C110.796 37.7711 110.869 37.6652 110.91 37.5456C110.99 37.3371 111.031 36.8997 111.031 36.2332V27.4123C111.031 26.5579 110.945 26.0282 110.768 25.8197C110.523 25.5531 110.118 25.4198 109.546 25.4198H109.058V25.0507H119.671V28.0241H119.422C119.349 27.6618 119.273 27.3645 119.2 27.1321C119.124 26.8996 119.041 26.7049 118.944 26.5511C118.851 26.3973 118.743 26.2742 118.622 26.1853C118.498 26.0931 118.352 26.0111 118.186 25.9393C117.909 25.8402 117.432 25.7889 116.757 25.7889H112.984ZM137.29 38.6256H133.614L128.951 32.2687C128.775 32.2756 128.615 32.2824 128.477 32.2858C128.338 32.2893 128.214 32.2893 128.107 32.2893C128.02 32.2893 127.923 32.2893 127.823 32.2858C127.722 32.2824 127.615 32.2756 127.508 32.2687V36.2196C127.508 37.0774 127.601 37.6071 127.792 37.8156C128.048 38.1095 128.432 38.2565 128.944 38.2565H129.481V38.6256H123.603V38.2565H124.119C124.694 38.2565 125.109 38.0685 125.365 37.696C125.507 37.4875 125.576 36.9988 125.576 36.223V27.4533C125.576 26.5989 125.483 26.0658 125.292 25.8607C125.029 25.5668 124.638 25.4198 124.119 25.4198H123.603V25.0507H128.615C130.066 25.0507 131.139 25.1567 131.845 25.372C132.188 25.471 132.513 25.6215 132.814 25.8197C133.115 26.0213 133.378 26.2572 133.603 26.5305C133.832 26.804 134.012 27.1116 134.143 27.4499C134.275 27.7917 134.341 28.154 134.341 28.5401C134.341 28.9605 134.271 29.3535 134.136 29.7158C134.001 30.0781 133.794 30.4095 133.51 30.7103C133.229 31.0111 132.876 31.2708 132.447 31.4896C132.021 31.7117 131.52 31.8859 130.941 32.0125L133.787 35.912C134.444 36.8142 135.002 37.4089 135.462 37.696C135.936 37.9899 136.546 38.1778 137.29 38.2565V38.6256ZM127.508 31.6434C127.636 31.6434 127.75 31.6467 127.844 31.6502C127.937 31.6536 128.017 31.6536 128.079 31.6536C128.736 31.6536 129.315 31.5784 129.813 31.428C130.311 31.2776 130.727 31.0692 131.059 30.8026C131.391 30.5361 131.641 30.2216 131.807 29.8559C131.973 29.4936 132.056 29.0972 132.056 28.67C132.056 28.2496 131.983 27.8668 131.841 27.5148C131.7 27.1662 131.499 26.8621 131.236 26.6092C130.976 26.3563 130.665 26.158 130.301 26.0179C129.938 25.8778 129.54 25.8094 129.107 25.8094C128.91 25.8094 128.678 25.8231 128.415 25.8538C128.148 25.8846 127.847 25.9325 127.508 26.0008V31.6434ZM148.536 24.7432V29.439H148.162C148.041 28.5367 147.823 27.819 147.504 27.2859C147.352 27.0193 147.158 26.7766 146.926 26.5648C146.694 26.3494 146.442 26.1683 146.168 26.0179C145.895 25.8675 145.607 25.7513 145.299 25.6693C144.995 25.5839 144.687 25.5429 144.375 25.5429C144.032 25.5429 143.714 25.6009 143.416 25.7171C143.119 25.8334 142.862 25.9906 142.644 26.182C142.426 26.3767 142.257 26.5989 142.136 26.8484C142.014 27.0979 141.952 27.3576 141.952 27.6242C141.952 27.9967 142.039 28.3248 142.215 28.6017C142.388 28.8785 142.631 29.1314 142.939 29.3672C143.243 29.5996 143.603 29.8251 144.019 30.0473C144.434 30.2661 144.884 30.5053 145.369 30.7582C145.912 31.0453 146.431 31.3255 146.923 31.5989C147.414 31.8724 147.847 32.1731 148.221 32.5046C148.595 32.8327 148.892 33.212 149.117 33.6358C149.339 34.0596 149.45 34.5654 149.45 35.1601C149.45 35.6659 149.342 36.1512 149.131 36.6058C148.917 37.0637 148.622 37.4635 148.238 37.8087C147.857 38.1505 147.4 38.4239 146.871 38.629C146.341 38.8306 145.76 38.9332 145.126 38.9332C144.887 38.9332 144.687 38.9297 144.517 38.9229C144.347 38.9161 144.185 38.9024 144.032 38.8785C143.877 38.8545 143.714 38.817 143.551 38.7691C143.385 38.7179 143.188 38.6495 142.956 38.5641C142.797 38.5026 142.631 38.4479 142.461 38.4C142.291 38.3488 142.136 38.3077 141.997 38.2736C141.855 38.2393 141.734 38.2154 141.637 38.195C141.537 38.1744 141.474 38.1642 141.45 38.1642C141.281 38.1642 141.146 38.2154 141.049 38.3145C140.952 38.4137 140.879 38.6188 140.831 38.9332H140.457V34.2784H140.831C140.917 34.767 141.021 35.1909 141.139 35.5565C141.256 35.9188 141.391 36.223 141.54 36.4724C141.689 36.7117 141.879 36.9338 142.115 37.1424C142.354 37.3508 142.617 37.5285 142.911 37.6789C143.205 37.8293 143.52 37.9454 143.863 38.0275C144.202 38.1129 144.552 38.1539 144.908 38.1539C145.334 38.1539 145.715 38.0924 146.054 37.9728C146.39 37.8532 146.677 37.6925 146.912 37.4875C147.151 37.2858 147.331 37.0466 147.456 36.7766C147.58 36.5066 147.643 36.2263 147.643 35.9325C147.643 35.4985 147.553 35.1327 147.369 34.8354C147.189 34.5381 146.944 34.2749 146.635 34.0391C146.331 33.8067 145.974 33.5846 145.566 33.3693C145.157 33.1574 144.728 32.9147 144.275 32.6482C143.762 32.3474 143.271 32.0638 142.793 31.7937C142.319 31.5237 141.9 31.2264 141.537 30.9017C141.17 30.5804 140.879 30.2113 140.661 29.7979C140.443 29.3843 140.332 28.8887 140.332 28.3146C140.332 27.8361 140.433 27.3782 140.637 26.9441C140.838 26.5101 141.118 26.1307 141.474 25.8026C141.834 25.4779 142.257 25.2182 142.745 25.0268C143.233 24.8388 143.769 24.7432 144.347 24.7432C145.064 24.7432 145.836 24.9209 146.663 25.2729C147.03 25.4403 147.297 25.5223 147.463 25.5223C147.639 25.5223 147.781 25.471 147.895 25.3686C148.006 25.2661 148.096 25.0576 148.162 24.7432H148.536ZM158.913 38.2565V38.6256H153.015V38.2565H153.503C154.081 38.2565 154.493 38.0924 154.745 37.7644C154.908 37.5593 154.988 37.0432 154.988 36.223V27.4533C154.988 27.1321 154.981 26.8723 154.967 26.6707C154.953 26.4725 154.929 26.305 154.891 26.1751C154.853 26.0452 154.801 25.9427 154.728 25.8709C154.659 25.7958 154.562 25.7274 154.437 25.6591C154.14 25.4984 153.828 25.4198 153.503 25.4198H153.015V25.0507H158.913V25.4198H158.418C157.85 25.4198 157.442 25.5839 157.193 25.912C157.023 26.117 156.94 26.6296 156.94 27.4533V36.223C156.94 36.5443 156.947 36.804 156.961 37.0056C156.975 37.2039 156.999 37.3679 157.037 37.4943C157.075 37.6208 157.13 37.7233 157.203 37.8019C157.276 37.8771 157.376 37.9489 157.497 38.0173C157.788 38.1778 158.093 38.2565 158.418 38.2565H158.913ZM173.358 25.0507V28.2291H173.129C173.074 27.8053 172.984 27.4465 172.859 27.1492C172.735 26.8553 172.568 26.616 172.368 26.4349C172.163 26.2503 171.914 26.1204 171.623 26.035C171.333 25.953 170.993 25.912 170.606 25.912H168.664V36.2743C168.664 37.1081 168.754 37.631 168.937 37.8361C169.187 38.1163 169.581 38.2565 170.121 38.2565H170.595V38.6256H164.759V38.2565H165.247C165.829 38.2565 166.244 38.0822 166.487 37.737C166.636 37.5285 166.712 37.0432 166.712 36.2743V25.912H165.061C164.645 25.912 164.278 25.9427 163.97 26.0008C163.659 26.0623 163.396 26.1751 163.181 26.3391C162.963 26.5066 162.79 26.7425 162.655 27.0466C162.52 27.3508 162.42 27.7438 162.35 28.2291H161.956V25.0507H173.358ZM185.846 25.0507H190.644V25.4198H190.381C190.301 25.4198 190.19 25.4403 190.052 25.4814C189.913 25.519 189.768 25.577 189.612 25.6488C189.457 25.724 189.297 25.8162 189.138 25.929C188.975 26.0452 188.827 26.1717 188.692 26.3118C188.55 26.4588 188.397 26.6467 188.231 26.8826C188.065 27.1149 187.878 27.3918 187.667 27.713L184.351 32.8703V36.2743C184.351 37.1081 184.444 37.6276 184.635 37.8361C184.888 38.1163 185.293 38.2565 185.857 38.2565H186.303V38.6256H180.447V38.2565H180.935C181.516 38.2565 181.931 38.0822 182.174 37.737C182.323 37.5285 182.399 37.0398 182.399 36.2743V33.0582L178.629 27.3713C178.408 27.033 178.221 26.7595 178.069 26.5579C177.916 26.3528 177.799 26.2059 177.719 26.1204C177.677 26.0795 177.612 26.0213 177.515 25.9461C177.421 25.8675 177.304 25.7889 177.162 25.7104C177.02 25.6283 176.861 25.5599 176.691 25.5053C176.518 25.4471 176.338 25.4198 176.147 25.4198V25.0507H182.025V25.4198H181.72C181.572 25.4198 181.423 25.4369 181.27 25.471C181.118 25.5018 180.983 25.5566 180.862 25.6317C180.741 25.7035 180.64 25.7958 180.564 25.9051C180.485 26.0145 180.447 26.1478 180.447 26.3016C180.447 26.5408 180.654 26.9748 181.066 27.6037L183.932 31.9782L186.629 27.7917C187.034 27.1662 187.238 26.698 187.238 26.3904C187.224 26.2503 187.193 26.1204 187.148 26.0008C187.099 25.8812 187.023 25.7753 186.923 25.6898C186.822 25.6044 186.684 25.536 186.507 25.4916C186.331 25.4438 186.109 25.4198 185.846 25.4198V25.0507Z" fill="white"/>
</svg>
