<svg width="20" height="20" viewBox="0 0 20 20" fill="none" xmlns="http://www.w3.org/2000/svg">
<path d="M15.7039 14.2842L19.7171 18.2965L18.3912 19.6224L14.3789 15.6091C12.886 16.8059 11.0291 17.4568 9.11572 17.4541C4.46065 17.4541 0.682617 13.6761 0.682617 9.021C0.682617 4.36592 4.46065 0.587891 9.11572 0.587891C13.7708 0.587891 17.5488 4.36592 17.5488 9.021C17.5516 10.9344 16.9006 12.7913 15.7039 14.2842ZM13.8242 13.5889C15.0134 12.366 15.6775 10.7268 15.6748 9.021C15.6748 5.39664 12.7392 2.46191 9.11572 2.46191C5.49136 2.46191 2.55664 5.39664 2.55664 9.021C2.55664 12.6444 5.49136 15.5801 9.11572 15.5801C10.8215 15.5828 12.4608 14.9187 13.6837 13.7295L13.8242 13.5889Z" fill="#5798FF"/>
</svg>
